<svg width="82" height="97" viewBox="0 0 82 97" fill="none" xmlns="http://www.w3.org/2000/svg">
<path d="M40.687 0C18.216 0 0 18.217 0 40.687C0 73.237 40.687 96.487 40.687 96.487C40.687 96.487 81.374 70.912 81.374 40.687C81.374 18.217 63.158 0 40.687 0Z" fill="#4B7CB6"/>
<circle cx="41" cy="41" r="36" fill="white"/>
<path d="M54.8296 18.2447L57.2697 17.203C57.5771 17.072 57.7237 16.7069 57.5977 16.3878C57.4712 16.0684 57.1199 15.916 56.8129 16.047L54.3728 17.0882C54.0658 17.2196 53.9191 17.5847 54.0452 17.9038C54.1713 18.2224 54.5222 18.3757 54.8296 18.2447Z" fill="#4B7CB6"/>
<path d="M33.3378 32.3943L38.2019 35.9654C38.9354 36.5037 39.9054 36.4238 40.5552 35.7897L46.3641 30.1248C47.1515 29.3571 47.2166 28.042 46.5095 27.187C45.8024 26.332 44.591 26.2613 43.8039 27.0291L39.1083 31.6079L35.4844 28.9471L38.6631 30.2945V29.16C38.6631 27.4148 37.3602 26 35.7526 26H30.5627C28.9555 26 27.6525 27.4148 27.6525 29.16V45.3738H27.6547L27.3442 53.4365L23.1812 64.4079C22.6772 65.7359 23.2605 67.2557 24.4835 67.803C25.7113 68.3526 27.1083 67.7113 27.6101 66.389L31.9341 54.9939C32.0405 54.7136 32.1007 54.4151 32.1122 54.1122L32.4451 45.482C32.4463 45.4457 32.4466 45.4097 32.4466 45.3734H33.59L36.325 53.4708L37.8642 65.7492C38.0278 67.0533 39.0552 67.9996 40.2342 67.9992C41.6916 67.9992 42.8059 66.6059 42.6103 65.0477L41.0362 52.4894C41.0128 52.3036 40.9711 52.121 40.9116 51.9449L38.6631 45.2882V37.755C38.2454 37.6358 37.8526 37.3975 37.5313 37.0421L33.3378 32.3943Z" fill="#4B7CB6"/>
<path d="M38 19.5002C38 21.9855 36.209 24 34.0002 24C31.791 24 30 21.9855 30 19.5002C30 17.0148 31.791 15 34.0002 15C36.209 15 38 17.0148 38 19.5002Z" fill="#4B7CB6"/>
<path d="M50.2569 17C49.8463 17 49.5135 17.3538 49.5135 17.7903V17.9384L41.4735 19.5412C41.4092 19.1746 41.1071 18.8965 40.7435 18.8965C40.3329 18.8965 40 19.2503 40 19.6868V23.3132C40 23.7497 40.3329 24.1035 40.7435 24.1035C41.1071 24.1035 41.4092 23.8258 41.4735 23.4588L42.3397 23.6319L43.523 25.7848C44.0848 25.3193 44.7529 25.0812 45.4232 25.0649L44.9183 24.1457L49.5135 25.0616V25.2097C49.5135 25.6462 49.8459 26 50.2565 26C50.6671 26 51 25.6462 51 25.2097V17.7903C51 17.3538 50.6675 17 50.2569 17Z" fill="#4B7CB6"/>
<path d="M57.3386 21H53.6618C53.2962 21 53 21.2239 53 21.4998C53 21.7761 53.2967 22 53.6618 22H57.3386C57.7038 22 58 21.7761 58 21.4998C58 21.2239 57.7038 21 57.3386 21Z" fill="#4B7CB6"/>
<path d="M56.6763 24.8928L54.6669 24.0358C54.4106 23.926 54.1257 24.0775 54.0309 24.3733C53.936 24.6695 54.0671 24.9981 54.3237 25.1076L56.3331 25.9646C56.5894 26.0736 56.8743 25.9224 56.9691 25.6267C57.064 25.3305 56.9329 25.0018 56.6763 24.8928Z" fill="#4B7CB6"/>
</svg>
