<svg width="150" height="150" viewBox="0 0 150 150" fill="none" xmlns="http://www.w3.org/2000/svg">
<path d="M150 75C150 116.421 116.421 150 75 150C33.5786 150 0 116.421 0 75C0 33.5786 33.5786 0 75 0C116.421 0 150 33.5786 150 75Z" fill="#A30000" fill-opacity="0.8"/>
<path d="M45.6316 63.0329C45.6982 69.9987 49.2287 76.3845 54.8679 79.7393C56.1593 80.4171 57.0526 83.3639 57.0526 83.3639L71.5049 121.502C72.7918 124.898 77.5736 124.96 78.9479 121.598L92.5016 88.4446C93.8756 85.0836 95.856 82.0134 98.0756 79.1397C101.451 74.7702 106.046 67.9148 106 63.0329V43.3202C105.991 39.3313 103.148 36.0219 99.4734 35.7248V28.9596C99.4734 24.8623 96.4054 21.5408 92.6208 21.5408C89.9173 21.5408 88.134 21.2688 85.9591 23.0086C84.94 20.0114 82.3062 18.0167 79.3561 18.008C76.8794 18.008 74.5006 17.7431 72.1772 20.2549C71.4651 21.0393 70.9161 21.9794 70.5669 23.0122C68.3952 21.2688 66.6103 21.5408 63.9051 21.5408C60.4662 21.5517 57.5698 24.3259 57.1407 28.0199C55.0947 26.605 53.5382 26.8399 50.8526 26.8399C47.068 26.8399 44 30.1614 44 34.2587V48.0364C44.0053 49.9296 44.5778 51.7699 45.6316 53.2808V63.0329ZM102.737 43.3202V63.0329C102.125 70.2667 92.9471 80.0991 90.9778 83.3639C89.3207 86.111 79.2133 112.17 76.0498 120.364C75.7184 121.222 74.5023 121.212 74.1794 120.35L60.3157 83.3639C60.3157 83.3639 58.7708 77.958 56.4472 76.6517C51.8436 73.9208 48.957 68.7156 48.8947 63.0329V56.1193C52.3685 57.7818 56.4429 56.6004 58.6841 53.2808C60.0396 55.2921 62.1237 56.5814 64.4125 56.8247C66.7013 57.0679 68.9771 56.2419 70.668 54.5543C71.9264 58.3353 75.4011 60.7029 79.0942 60.2959C82.7873 59.8889 85.75 56.8118 86.2789 52.8339C87.5832 53.2177 88.9335 53.3869 90.2844 53.3355C90.545 53.3308 90.7958 53.4426 90.9778 53.6446C91.4363 54.1304 91.3155 54.0226 91.3155 60.401C91.3155 61.3766 92.046 62.1674 92.9471 62.1674C93.8482 62.1674 94.5787 61.3766 94.5787 60.401V54.519C94.5848 53.2665 94.128 52.0633 93.3101 51.1774C92.4921 50.2916 91.3809 49.7966 90.224 49.8028C88.415 50.0478 86.5912 49.4918 85.1661 48.2607C83.1283 46.1411 82.2848 42.5589 84.3324 40.4481C85.1159 39.6432 86.1566 39.1976 87.2366 39.2045H98.9349C101.034 39.2065 102.735 41.048 102.737 43.3202ZM90.0103 25.0735H92.6208C94.6032 25.0735 96.2102 26.8134 96.2102 28.9596V35.6718C85.6572 35.6718 87.3998 35.6418 86.4208 35.7548V28.9596C86.4208 26.8134 88.0279 25.0735 90.0103 25.0735ZM73.3683 25.6564C73.3851 23.391 75.0773 21.559 77.1698 21.5408H79.3561C81.4549 21.5427 83.1559 23.3842 83.1577 25.6564V36.9754C78.4734 40.2714 79.1473 47.2027 83.1577 51.0163C83.2915 53.6861 81.6551 56.0826 79.2582 56.727C77.7753 57.023 76.2482 56.5769 75.1042 55.5133C73.9602 54.4498 73.322 52.883 73.3683 51.2512V25.6564ZM60.3157 28.9596C60.3157 26.8134 61.9227 25.0735 63.9051 25.0735H66.5157C68.4981 25.0735 70.1051 26.8134 70.1051 28.9596V48.0364C70.1051 50.963 67.9137 53.3355 65.2104 53.3355C62.5071 53.3355 60.3157 50.963 60.3157 48.0364V28.9596ZM47.2631 34.2587C47.2631 32.1125 48.8702 30.3727 50.8526 30.3727H53.4631C55.4455 30.3727 57.0526 32.1125 57.0526 34.2587V48.0364C57.0526 50.963 54.8611 53.3355 52.1578 53.3355C49.4546 53.3355 47.2631 50.963 47.2631 48.0364V34.2587Z" fill="white"/>
</svg>
