<svg width="44" height="26" viewBox="0 0 44 26" fill="none" xmlns="http://www.w3.org/2000/svg">
<path d="M43.2967 2.1777L41.8554 0.726404C41.4018 0.273165 40.7983 0.0234714 40.1534 0.0234714C39.5087 0.0234714 38.9045 0.273165 38.4509 0.726404L22.0098 17.1682L5.54977 0.70816C5.09689 0.25492 4.49269 0.00558472 3.84806 0.00558472C3.20344 0.00558472 2.59888 0.25492 2.14564 0.70816L0.704006 2.15051C-0.234669 3.08847 -0.234669 4.61632 0.704006 5.55428L20.3017 25.2224C20.7546 25.6753 21.3581 25.9944 22.0084 25.9944H22.0159C22.6609 25.9944 23.2644 25.675 23.7173 25.2224L43.2967 5.60758C43.7503 5.1547 43.9993 4.53297 44 3.88835C44 3.24337 43.7503 2.63022 43.2967 2.1777Z" fill="black"/>
</svg>
