<svg width="44" height="26" viewBox="0 0 44 26" fill="none" xmlns="http://www.w3.org/2000/svg">
<path d="M0.703293 23.8223L2.14457 25.2736C2.59817 25.7268 3.20165 25.9765 3.84663 25.9765C4.49126 25.9765 5.09546 25.7268 5.54905 25.2736L21.9902 8.83177L38.4502 25.2918C38.9031 25.7451 39.5073 25.9944 40.1519 25.9944C40.7966 25.9944 41.4011 25.7451 41.8544 25.2918L43.296 23.8495C44.2347 22.9115 44.2347 21.3837 43.296 20.4457L23.6983 0.777563C23.2454 0.324682 22.6419 0.00558853 21.9916 0.00558853H21.9841C21.3391 0.00558853 20.7356 0.325039 20.2827 0.777563L0.703293 20.3924C0.249695 20.8453 0.000717163 21.467 0 22.1117C0 22.7566 0.249695 23.3698 0.703293 23.8223Z" fill="black"/>
</svg>
