<svg width="82" height="97" viewBox="0 0 82 97" fill="none" xmlns="http://www.w3.org/2000/svg">
<path d="M40.687 0C18.216 0 0 18.217 0 40.687C0 73.237 40.687 96.487 40.687 96.487C40.687 96.487 81.374 70.912 81.374 40.687C81.374 18.217 63.158 0 40.687 0Z" fill="#ED1818"/>
<circle cx="41" cy="41" r="36" fill="white"/>
<path d="M41.0002 14C26.0876 14 14 26.0905 14 41.0028C14 55.9097 26.0876 67.9995 41.0002 67.9995C55.9125 67.9995 68 55.9097 68 41.0028C68 26.0905 55.9127 14 41.0002 14ZM57.2349 45.2218H24.7654V36.78H57.2349V45.2218Z" fill="#ED1818"/>
</svg>
