<svg width="84" height="77" viewBox="0 0 84 77" fill="none" xmlns="http://www.w3.org/2000/svg">
<path d="M73.6574 10.4487C72.1285 4.42421 66.8223 0 60.7966 0H13.3105C6.0257 0 0 6.21271 0 13.9315V36.9939C0 43.489 4.40685 49.1369 10.3426 50.5489C11.7816 56.5734 16.9979 60.9976 23.2034 60.9976H25.182V74.9291C25.182 75.6822 25.6317 76.4352 26.2612 76.8117C26.531 76.9059 26.8009 77 27.1606 77C27.6103 77 27.97 76.8117 28.3298 76.5293L47.576 60.9976H70.6895C77.9743 60.9976 84 54.7848 84 47.066V24.0037C84 17.4144 79.5931 11.8606 73.6574 10.4487ZM9.89293 24.0037V46.1247C6.38544 44.7127 3.95717 41.1357 3.95717 36.9939V13.9315C3.95717 8.56602 8.18415 4.14181 13.3105 4.14181H60.8865C64.6638 4.14181 67.9914 6.58924 69.4304 10.0721H23.2034C15.9186 10.0721 9.89293 16.2848 9.89293 24.0037ZM80.1328 47.066H80.0428C80.0428 52.4315 75.8158 56.8557 70.6895 56.8557H46.9465C46.4968 56.8557 46.0471 57.044 45.7773 57.3264L29.1392 70.7873V58.9267C29.1392 57.7971 28.2398 56.8557 27.1606 56.8557H23.2034C18.0771 56.8557 13.8501 52.4315 13.8501 47.066V24.0037C13.8501 18.6381 18.0771 14.2139 23.2034 14.2139H70.7794C75.9058 14.2139 80.1328 18.6381 80.1328 24.0037V47.066V47.066Z" fill="black"/>
<path d="M67.182 23.3447H26.7109C25.6317 23.3447 24.7324 24.286 24.7324 25.4156C24.7324 26.5452 25.6317 27.4865 26.7109 27.4865H67.182C68.2613 27.4865 69.1606 26.5452 69.1606 25.4156C69.1606 24.286 68.2613 23.3447 67.182 23.3447Z" fill="black"/>
<path d="M67.182 32.3815H26.7109C25.6317 32.3815 24.7324 33.3228 24.7324 34.4524C24.7324 35.582 25.6317 36.5233 26.7109 36.5233H67.182C68.2613 36.5233 69.1606 35.582 69.1606 34.4524C69.1606 33.3228 68.2613 32.3815 67.182 32.3815Z" fill="black"/>
<path d="M67.182 41.5123H26.7109C25.6317 41.5123 24.7324 42.4536 24.7324 43.5832C24.7324 44.7128 25.6317 45.6541 26.7109 45.6541H67.182C68.2613 45.6541 69.1606 44.7128 69.1606 43.5832C69.1606 42.3595 68.2613 41.5123 67.182 41.5123Z" fill="black"/>
</svg>
