<svg width="55" height="55" viewBox="0 0 55 55" fill="none" xmlns="http://www.w3.org/2000/svg">
<circle cx="27.5" cy="27.5" r="26.5" fill="white" stroke="#74B1F9" stroke-width="2"/>
<mask id="path-2-inside-1" fill="white">
<path d="M38.3062 19.6638C37.7602 17.5513 35.8651 16 33.7131 16H16.7537C14.152 16 12 18.1785 12 20.8851V28.9719C12 31.2494 13.5739 33.2298 15.6938 33.7249C16.2077 35.8374 18.0707 37.3888 20.2869 37.3888H20.9936V42.2738C20.9936 42.5379 21.1542 42.802 21.379 42.934C21.4754 42.967 21.5717 43 21.7002 43C21.8608 43 21.9893 42.934 22.1178 42.835L28.9914 37.3888H37.2463C39.848 37.3888 42 35.2103 42 32.5037V24.4169C42 22.1064 40.4261 20.1589 38.3062 19.6638ZM15.5332 24.4169V32.1736C14.2805 31.6785 13.4133 30.4242 13.4133 28.9719V20.8851C13.4133 19.0037 14.9229 17.4523 16.7537 17.4523H33.7452C35.0942 17.4523 36.2827 18.3105 36.7966 19.5318H20.2869C17.6852 19.5318 15.5332 21.7103 15.5332 24.4169ZM40.6188 32.5037H40.5867C40.5867 34.3851 39.0771 35.9364 37.2463 35.9364H28.7666C28.606 35.9364 28.4454 36.0024 28.349 36.1015L22.4069 40.8215V36.6626C22.4069 36.2665 22.0857 35.9364 21.7002 35.9364H20.2869C18.4561 35.9364 16.9465 34.3851 16.9465 32.5037V24.4169C16.9465 22.5355 18.4561 20.9841 20.2869 20.9841H37.2784C39.1092 20.9841 40.6188 22.5355 40.6188 24.4169V32.5037V32.5037Z"/>
</mask>
<path d="M38.3062 19.6638C37.7602 17.5513 35.8651 16 33.7131 16H16.7537C14.152 16 12 18.1785 12 20.8851V28.9719C12 31.2494 13.5739 33.2298 15.6938 33.7249C16.2077 35.8374 18.0707 37.3888 20.2869 37.3888H20.9936V42.2738C20.9936 42.5379 21.1542 42.802 21.379 42.934C21.4754 42.967 21.5717 43 21.7002 43C21.8608 43 21.9893 42.934 22.1178 42.835L28.9914 37.3888H37.2463C39.848 37.3888 42 35.2103 42 32.5037V24.4169C42 22.1064 40.4261 20.1589 38.3062 19.6638ZM15.5332 24.4169V32.1736C14.2805 31.6785 13.4133 30.4242 13.4133 28.9719V20.8851C13.4133 19.0037 14.9229 17.4523 16.7537 17.4523H33.7452C35.0942 17.4523 36.2827 18.3105 36.7966 19.5318H20.2869C17.6852 19.5318 15.5332 21.7103 15.5332 24.4169ZM40.6188 32.5037H40.5867C40.5867 34.3851 39.0771 35.9364 37.2463 35.9364H28.7666C28.606 35.9364 28.4454 36.0024 28.349 36.1015L22.4069 40.8215V36.6626C22.4069 36.2665 22.0857 35.9364 21.7002 35.9364H20.2869C18.4561 35.9364 16.9465 34.3851 16.9465 32.5037V24.4169C16.9465 22.5355 18.4561 20.9841 20.2869 20.9841H37.2784C39.1092 20.9841 40.6188 22.5355 40.6188 24.4169V32.5037V32.5037Z" fill="#74B1F9"/>
<path d="M38.3062 19.6638L36.3699 20.1643L36.6727 21.3361L37.8513 21.6114L38.3062 19.6638ZM15.6938 33.7249L17.6371 33.2522L17.3464 32.0571L16.1487 31.7774L15.6938 33.7249ZM20.9936 37.3888H22.9936V35.3888H20.9936V37.3888ZM21.379 42.934L20.3663 44.6586L20.5401 44.7607L20.7309 44.8261L21.379 42.934ZM22.1178 42.835L23.3387 44.4191L23.3493 44.4109L23.3598 44.4025L22.1178 42.835ZM28.9914 37.3888V35.3888H28.2951L27.7494 35.8212L28.9914 37.3888ZM42 24.4169H40H42ZM15.5332 32.1736L14.798 34.0336L17.5332 35.1146V32.1736H15.5332ZM36.7966 19.5318V21.5318H39.8081L38.64 18.7561L36.7966 19.5318ZM20.2869 19.5318V17.5318V19.5318ZM40.5867 32.5037V30.5037H38.5867V32.5037H40.5867ZM28.349 36.1015L29.593 37.6675L29.6932 37.588L29.7824 37.4963L28.349 36.1015ZM22.4069 40.8215H20.4069V44.9644L23.6508 42.3876L22.4069 40.8215ZM40.2426 19.1633C39.4838 16.2279 36.8373 14 33.7131 14V18C34.8929 18 36.0365 18.8748 36.3699 20.1643L40.2426 19.1633ZM33.7131 14H16.7537V18H33.7131V14ZM16.7537 14C13.0051 14 10 17.1167 10 20.8851H14C14 19.2402 15.299 18 16.7537 18V14ZM10 20.8851V28.9719H14V20.8851H10ZM10 28.9719C10 32.1554 12.1915 34.9608 15.2389 35.6725L16.1487 31.7774C14.9562 31.4989 14 30.3434 14 28.9719H10ZM13.7505 34.1977C14.4716 37.162 17.1032 39.3888 20.2869 39.3888V35.3888C19.0382 35.3888 17.9438 34.5128 17.6371 33.2522L13.7505 34.1977ZM20.2869 39.3888H20.9936V35.3888H20.2869V39.3888ZM18.9936 37.3888V42.2738H22.9936V37.3888H18.9936ZM18.9936 42.2738C18.9936 43.2888 19.5666 44.1891 20.3663 44.6586L22.3917 41.2093C22.5942 41.3282 22.7332 41.4826 22.8239 41.6361C22.9149 41.7901 22.9936 42.0056 22.9936 42.2738H18.9936ZM20.7309 44.8261C20.8272 44.859 21.2053 45 21.7002 45V41C21.8149 41 21.9148 41.0157 21.9891 41.0333C22.046 41.0468 22.0871 41.0625 22.0271 41.0419L20.7309 44.8261ZM21.7002 45C22.4837 45 23.0378 44.651 23.3387 44.4191L20.8969 41.2509C20.9122 41.2391 20.9983 41.1734 21.1417 41.1127C21.2997 41.0459 21.4915 41 21.7002 41V45ZM23.3598 44.4025L30.2335 38.9563L27.7494 35.8212L20.8757 41.2674L23.3598 44.4025ZM28.9914 39.3888H37.2463V35.3888H28.9914V39.3888ZM37.2463 39.3888C40.9949 39.3888 44 36.272 44 32.5037H40C40 34.1485 38.701 35.3888 37.2463 35.3888V39.3888ZM44 32.5037V24.4169H40V32.5037H44ZM44 24.4169C44 21.1922 41.8006 18.4261 38.7611 17.7162L37.8513 21.6114C39.0516 21.8917 40 23.0206 40 24.4169L44 24.4169ZM13.5332 24.4169V32.1736H17.5332V24.4169H13.5332ZM16.2683 30.3136C15.7988 30.128 15.4133 29.6249 15.4133 28.9719H11.4133C11.4133 31.2235 12.7622 33.2289 14.798 34.0336L16.2683 30.3136ZM15.4133 28.9719V20.8851H11.4133V28.9719H15.4133ZM15.4133 20.8851C15.4133 20.0565 16.0785 19.4523 16.7537 19.4523V15.4523C13.7673 15.4523 11.4133 17.9508 11.4133 20.8851H15.4133ZM16.7537 19.4523H33.7452V15.4523H16.7537V19.4523ZM33.7452 19.4523C34.2273 19.4523 34.7266 19.7691 34.9531 20.3075L38.64 18.7561C37.8387 16.8519 35.9611 15.4523 33.7452 15.4523V19.4523ZM36.7966 17.5318H20.2869V21.5318H36.7966V17.5318ZM20.2869 17.5318C16.5383 17.5318 13.5332 20.6485 13.5332 24.4169H17.5332C17.5332 22.772 18.8321 21.5318 20.2869 21.5318V17.5318ZM40.6188 30.5037H40.5867V34.5037H40.6188V30.5037ZM38.5867 32.5037C38.5867 33.3322 37.9215 33.9364 37.2463 33.9364V37.9364C40.2327 37.9364 42.5867 35.4379 42.5867 32.5037H38.5867ZM37.2463 33.9364H28.7666V37.9364H37.2463V33.9364ZM28.7666 33.9364C28.1233 33.9364 27.4267 34.1815 26.9157 34.7067L29.7824 37.4963C29.6063 37.6773 29.4225 37.7804 29.2759 37.839C29.1249 37.8993 28.954 37.9364 28.7666 37.9364V33.9364ZM27.1051 34.5354L21.1629 39.2555L23.6508 42.3876L29.593 37.6675L27.1051 34.5354ZM24.4069 40.8215V36.6626H20.4069V40.8215H24.4069ZM24.4069 36.6626C24.4069 35.2137 23.2413 33.9364 21.7002 33.9364V37.9364C20.93 37.9364 20.4069 37.3193 20.4069 36.6626H24.4069ZM21.7002 33.9364H20.2869V37.9364H21.7002V33.9364ZM20.2869 33.9364C19.6117 33.9364 18.9465 33.3322 18.9465 32.5037H14.9465C14.9465 35.4379 17.3005 37.9364 20.2869 37.9364V33.9364ZM18.9465 32.5037V24.4169H14.9465V32.5037H18.9465ZM18.9465 24.4169C18.9465 23.5883 19.6117 22.9841 20.2869 22.9841V18.9841C17.3005 18.9841 14.9465 21.4826 14.9465 24.4169H18.9465ZM20.2869 22.9841H37.2784V18.9841H20.2869V22.9841ZM37.2784 22.9841C37.9536 22.9841 38.6188 23.5883 38.6188 24.4169H42.6188C42.6188 21.4826 40.2648 18.9841 37.2784 18.9841V22.9841ZM38.6188 24.4169V32.5037H42.6188V24.4169H38.6188Z" fill="#74B1F9" mask="url(#path-2-inside-1)"/>
<mask id="path-4-inside-2" fill="white">
<path d="M35.9936 24.1858H21.5396C21.1542 24.1858 20.833 24.5159 20.833 24.912C20.833 25.308 21.1542 25.6381 21.5396 25.6381H35.9936C36.379 25.6381 36.7002 25.308 36.7002 24.912C36.7002 24.5159 36.379 24.1858 35.9936 24.1858Z"/>
</mask>
<path d="M35.9936 24.1858H21.5396C21.1542 24.1858 20.833 24.5159 20.833 24.912C20.833 25.308 21.1542 25.6381 21.5396 25.6381H35.9936C36.379 25.6381 36.7002 25.308 36.7002 24.912C36.7002 24.5159 36.379 24.1858 35.9936 24.1858Z" fill="#74B1F9"/>
<path d="M35.9936 22.1858H21.5396V26.1858H35.9936V22.1858ZM21.5396 22.1858C19.9986 22.1858 18.833 23.463 18.833 24.912H22.833C22.833 25.5687 22.3098 26.1858 21.5396 26.1858V22.1858ZM18.833 24.912C18.833 26.3609 19.9986 27.6381 21.5396 27.6381V23.6381C22.3098 23.6381 22.833 24.2552 22.833 24.912H18.833ZM21.5396 27.6381H35.9936V23.6381H21.5396V27.6381ZM35.9936 27.6381C37.5346 27.6381 38.7002 26.3609 38.7002 24.912H34.7002C34.7002 24.2552 35.2234 23.6381 35.9936 23.6381V27.6381ZM38.7002 24.912C38.7002 23.463 37.5346 22.1858 35.9936 22.1858V26.1858C35.2234 26.1858 34.7002 25.5687 34.7002 24.912H38.7002Z" fill="#74B1F9" mask="url(#path-4-inside-2)"/>
<mask id="path-6-inside-3" fill="white">
<path d="M35.9936 27.3546H21.5396C21.1542 27.3546 20.833 27.6846 20.833 28.0807C20.833 28.4768 21.1542 28.8069 21.5396 28.8069H35.9936C36.379 28.8069 36.7002 28.4768 36.7002 28.0807C36.7002 27.6846 36.379 27.3546 35.9936 27.3546Z"/>
</mask>
<path d="M35.9936 27.3546H21.5396C21.1542 27.3546 20.833 27.6846 20.833 28.0807C20.833 28.4768 21.1542 28.8069 21.5396 28.8069H35.9936C36.379 28.8069 36.7002 28.4768 36.7002 28.0807C36.7002 27.6846 36.379 27.3546 35.9936 27.3546Z" fill="#74B1F9"/>
<path d="M35.9936 25.3546H21.5396V29.3546H35.9936V25.3546ZM21.5396 25.3546C19.9986 25.3546 18.833 26.6318 18.833 28.0807H22.833C22.833 28.7375 22.3098 29.3546 21.5396 29.3546V25.3546ZM18.833 28.0807C18.833 29.5296 19.9986 30.8069 21.5396 30.8069V26.8069C22.3098 26.8069 22.833 27.424 22.833 28.0807H18.833ZM21.5396 30.8069H35.9936V26.8069H21.5396V30.8069ZM35.9936 30.8069C37.5346 30.8069 38.7002 29.5296 38.7002 28.0807H34.7002C34.7002 27.424 35.2234 26.8069 35.9936 26.8069V30.8069ZM38.7002 28.0807C38.7002 26.6318 37.5346 25.3546 35.9936 25.3546V29.3546C35.2234 29.3546 34.7002 28.7375 34.7002 28.0807H38.7002Z" fill="#74B1F9" mask="url(#path-6-inside-3)"/>
<mask id="path-8-inside-4" fill="white">
<path d="M35.9936 30.5562H21.5396C21.1542 30.5562 20.833 30.8863 20.833 31.2824C20.833 31.6785 21.1542 32.0085 21.5396 32.0085H35.9936C36.379 32.0085 36.7002 31.6785 36.7002 31.2824C36.7002 30.8533 36.379 30.5562 35.9936 30.5562Z"/>
</mask>
<path d="M35.9936 30.5562H21.5396C21.1542 30.5562 20.833 30.8863 20.833 31.2824C20.833 31.6785 21.1542 32.0085 21.5396 32.0085H35.9936C36.379 32.0085 36.7002 31.6785 36.7002 31.2824C36.7002 30.8533 36.379 30.5562 35.9936 30.5562Z" fill="#74B1F9"/>
<path d="M35.9936 28.5562H21.5396V32.5562H35.9936V28.5562ZM21.5396 28.5562C19.9986 28.5562 18.833 29.8334 18.833 31.2824H22.833C22.833 31.9391 22.3098 32.5562 21.5396 32.5562V28.5562ZM18.833 31.2824C18.833 32.7313 19.9986 34.0085 21.5396 34.0085V30.0085C22.3098 30.0085 22.833 30.6256 22.833 31.2824H18.833ZM21.5396 34.0085H35.9936V30.0085H21.5396V34.0085ZM35.9936 34.0085C37.5346 34.0085 38.7002 32.7313 38.7002 31.2824H34.7002C34.7002 30.6256 35.2234 30.0085 35.9936 30.0085V34.0085ZM38.7002 31.2824C38.7002 29.7402 37.4751 28.5562 35.9936 28.5562V32.5562C35.665 32.5562 35.3321 32.4263 35.0804 32.1758C34.8218 31.9183 34.7002 31.5854 34.7002 31.2824H38.7002Z" fill="#74B1F9" mask="url(#path-8-inside-4)"/>
</svg>
