<svg width="116" height="102" viewBox="0 0 116 102" fill="none" xmlns="http://www.w3.org/2000/svg">
<path d="M101.717 13.8411C99.606 5.86064 92.2784 0 83.9572 0H18.3812C8.3212 0 0 8.22983 0 18.4548V49.0049C0 57.6088 6.08565 65.0905 14.2827 66.9609C16.2698 74.9413 23.4732 80.802 32.0428 80.802H34.7752V99.2567C34.7752 100.254 35.3961 101.252 36.2655 101.751C36.6381 101.875 37.0107 102 37.5075 102C38.1285 102 38.6253 101.751 39.1221 101.377L65.7002 80.802H97.6188C107.679 80.802 116 72.5721 116 62.3472V31.7971C116 23.0685 109.914 15.7115 101.717 13.8411ZM13.6617 31.7971V61.1002C8.81799 59.2298 5.46467 54.4914 5.46467 49.0049V18.4548C5.46467 11.3472 11.3019 5.48655 18.3812 5.48655H84.0814C89.2976 5.48655 93.8929 8.72861 95.8801 13.3423H32.0428C21.9829 13.3423 13.6617 21.5721 13.6617 31.7971ZM110.66 62.3472H110.535C110.535 69.4548 104.698 75.3154 97.6188 75.3154H64.8308C64.2098 75.3154 63.5889 75.5648 63.2163 75.9389L40.2398 93.7702V78.0587C40.2398 76.5624 38.9979 75.3154 37.5075 75.3154H32.0428C24.9636 75.3154 19.1263 69.4548 19.1263 62.3472V31.7971C19.1263 24.6895 24.9636 18.8289 32.0428 18.8289H97.743C104.822 18.8289 110.66 24.6895 110.66 31.7971V62.3472V62.3472Z" fill="black"/>
<path d="M92.7752 30.9242H36.8865C35.3962 30.9242 34.1542 32.1711 34.1542 33.6675C34.1542 35.1638 35.3962 36.4107 36.8865 36.4107H92.7752C94.2655 36.4107 95.5075 35.1638 95.5075 33.6675C95.5075 32.1711 94.2655 30.9242 92.7752 30.9242Z" fill="black"/>
<path d="M92.7752 42.8949H36.8865C35.3962 42.8949 34.1542 44.1418 34.1542 45.6382C34.1542 47.1345 35.3962 48.3814 36.8865 48.3814H92.7752C94.2655 48.3814 95.5075 47.1345 95.5075 45.6382C95.5075 44.1418 94.2655 42.8949 92.7752 42.8949Z" fill="black"/>
<path d="M92.7752 54.9904H36.8865C35.3962 54.9904 34.1542 56.2373 34.1542 57.7336C34.1542 59.23 35.3962 60.4769 36.8865 60.4769H92.7752C94.2655 60.4769 95.5075 59.23 95.5075 57.7336C95.5075 56.1126 94.2655 54.9904 92.7752 54.9904Z" fill="black"/>
</svg>
