<svg width="55" height="55" viewBox="0 0 55 55" fill="none" xmlns="http://www.w3.org/2000/svg">
<circle cx="27.5" cy="27.5" r="26.5" fill="white" stroke="#74B1F9" stroke-width="2"/>
<mask id="path-2-inside-1" fill="white">
<path d="M41.3212 16.8851C40.6296 14.0685 38.2291 12 35.5032 12H14.0214C10.7259 12 8 14.9046 8 18.5134V29.2958C8 32.3325 9.99358 34.9731 12.6788 35.6333C13.3298 38.4499 15.6895 40.5183 18.4968 40.5183H19.3919V47.0318C19.3919 47.3839 19.5953 47.7359 19.8801 47.912C20.0021 47.956 20.1242 48 20.2869 48C20.4904 48 20.6531 47.912 20.8158 47.78L29.5225 40.5183H39.9786C43.2741 40.5183 46 37.6137 46 34.0049V23.2225C46 20.1418 44.0064 17.5452 41.3212 16.8851ZM12.4754 23.2225V33.5648C10.8887 32.9046 9.79015 31.2323 9.79015 29.2958V18.5134C9.79015 16.0049 11.7024 13.9364 14.0214 13.9364H35.5439C37.2527 13.9364 38.758 15.0807 39.409 16.709H18.4968C15.2013 16.709 12.4754 19.6137 12.4754 23.2225ZM44.2505 34.0049H44.2098C44.2098 36.5134 42.2976 38.5819 39.9786 38.5819H29.2377C29.0343 38.5819 28.8308 38.6699 28.7088 38.802L21.182 45.0954V39.5501C21.182 39.022 20.7752 38.5819 20.2869 38.5819H18.4968C16.1777 38.5819 14.2655 36.5134 14.2655 34.0049V23.2225C14.2655 20.7139 16.1777 18.6455 18.4968 18.6455H40.0193C42.3383 18.6455 44.2505 20.7139 44.2505 23.2225V34.0049V34.0049Z"/>
</mask>
<path d="M41.3212 16.8851C40.6296 14.0685 38.2291 12 35.5032 12H14.0214C10.7259 12 8 14.9046 8 18.5134V29.2958C8 32.3325 9.99358 34.9731 12.6788 35.6333C13.3298 38.4499 15.6895 40.5183 18.4968 40.5183H19.3919V47.0318C19.3919 47.3839 19.5953 47.7359 19.8801 47.912C20.0021 47.956 20.1242 48 20.2869 48C20.4904 48 20.6531 47.912 20.8158 47.78L29.5225 40.5183H39.9786C43.2741 40.5183 46 37.6137 46 34.0049V23.2225C46 20.1418 44.0064 17.5452 41.3212 16.8851ZM12.4754 23.2225V33.5648C10.8887 32.9046 9.79015 31.2323 9.79015 29.2958V18.5134C9.79015 16.0049 11.7024 13.9364 14.0214 13.9364H35.5439C37.2527 13.9364 38.758 15.0807 39.409 16.709H18.4968C15.2013 16.709 12.4754 19.6137 12.4754 23.2225ZM44.2505 34.0049H44.2098C44.2098 36.5134 42.2976 38.5819 39.9786 38.5819H29.2377C29.0343 38.5819 28.8308 38.6699 28.7088 38.802L21.182 45.0954V39.5501C21.182 39.022 20.7752 38.5819 20.2869 38.5819H18.4968C16.1777 38.5819 14.2655 36.5134 14.2655 34.0049V23.2225C14.2655 20.7139 16.1777 18.6455 18.4968 18.6455H40.0193C42.3383 18.6455 44.2505 20.7139 44.2505 23.2225V34.0049V34.0049Z" fill="#74B1F9"/>
<path d="M41.3212 16.8851L39.3789 17.362L39.6677 18.5381L40.8437 18.8273L41.3212 16.8851ZM12.6788 35.6333L14.6274 35.1829L14.3505 33.9847L13.1563 33.6911L12.6788 35.6333ZM19.3919 40.5183H21.3919V38.5183H19.3919V40.5183ZM19.8801 47.912L18.8285 49.6132L19.0057 49.7228L19.2017 49.7934L19.8801 47.912ZM20.8158 47.78L22.0759 49.3331L22.0864 49.3246L22.0968 49.3159L20.8158 47.78ZM29.5225 40.5183V38.5183H28.7979L28.2415 38.9824L29.5225 40.5183ZM46 23.2225H44H46ZM12.4754 33.5648L11.7071 35.4114L14.4754 36.5631V33.5648H12.4754ZM39.409 16.709V18.709H42.3624L41.2661 15.9666L39.409 16.709ZM18.4968 16.709V14.709V16.709ZM44.2098 34.0049V32.0049H42.2098V34.0049H44.2098ZM28.7088 38.802L29.9917 40.3363L30.0902 40.2539L30.1774 40.1596L28.7088 38.802ZM21.182 45.0954H19.182V49.3746L22.4649 46.6297L21.182 45.0954ZM43.2635 16.4081C42.383 12.8226 39.2731 10 35.5032 10V14C37.1852 14 38.8761 15.3143 39.3789 17.362L43.2635 16.4081ZM35.5032 10H14.0214V14H35.5032V10ZM14.0214 10C9.48475 10 6 13.9418 6 18.5134H10C10 15.8675 11.9671 14 14.0214 14V10ZM6 18.5134V29.2958H10V18.5134H6ZM6 29.2958C6 33.1645 8.53879 36.675 12.2013 37.5754L13.1563 33.6911C11.4484 33.2712 10 31.5005 10 29.2958H6ZM10.7302 36.0836C11.5651 39.6962 14.6489 42.5183 18.4968 42.5183V38.5183C16.7301 38.5183 15.0944 37.2036 14.6274 35.1829L10.7302 36.0836ZM18.4968 42.5183H19.3919V38.5183H18.4968V42.5183ZM17.3919 40.5183V47.0318H21.3919V40.5183H17.3919ZM17.3919 47.0318C17.3919 48.0858 17.9617 49.0774 18.8285 49.6132L20.9317 46.2107C21.1067 46.319 21.2114 46.4489 21.2732 46.559C21.336 46.6708 21.3919 46.8289 21.3919 47.0318H17.3919ZM19.2017 49.7934C19.3218 49.8367 19.7389 50 20.2869 50V46C20.394 46 20.4868 46.0156 20.5526 46.032C20.5816 46.0393 20.5997 46.0453 20.601 46.0457C20.6015 46.0459 20.5992 46.0451 20.5918 46.0425C20.5838 46.0397 20.5748 46.0364 20.5585 46.0306L19.2017 49.7934ZM20.2869 50C21.1459 50 21.7475 49.5995 22.0759 49.3331L19.5558 46.2268C19.5563 46.2264 19.5733 46.2125 19.6043 46.1924C19.636 46.1719 19.6859 46.1424 19.7529 46.1125C19.8992 46.0474 20.0837 46 20.2869 46V50ZM22.0968 49.3159L30.8035 42.0543L28.2415 38.9824L19.5348 46.244L22.0968 49.3159ZM29.5225 42.5183H39.9786V38.5183H29.5225V42.5183ZM39.9786 42.5183C44.5152 42.5183 48 38.5765 48 34.0049H44C44 36.6509 42.0329 38.5183 39.9786 38.5183V42.5183ZM48 34.0049V23.2225H44V34.0049H48ZM48 23.2225C48 19.3016 45.4537 15.8415 41.7987 14.9429L40.8437 18.8273C42.5591 19.249 44 20.9821 44 23.2225L48 23.2225ZM10.4754 23.2225V33.5648H14.4754V23.2225H10.4754ZM13.2436 31.7182C12.4644 31.3941 11.7901 30.4935 11.7901 29.2958H7.79015C7.79015 31.9711 9.31286 34.4152 11.7071 35.4114L13.2436 31.7182ZM11.7901 29.2958V18.5134H7.79015V29.2958H11.7901ZM11.7901 18.5134C11.7901 16.9586 12.9519 15.9364 14.0214 15.9364V11.9364C10.4528 11.9364 7.79015 15.0511 7.79015 18.5134H11.7901ZM14.0214 15.9364H35.5439V11.9364H14.0214V15.9364ZM35.5439 15.9364C36.3252 15.9364 37.1618 16.4756 37.5519 17.4515L41.2661 15.9666C40.3543 13.6858 38.1801 11.9364 35.5439 11.9364V15.9364ZM39.409 14.709H18.4968V18.709H39.409V14.709ZM18.4968 14.709C13.9601 14.709 10.4754 18.6509 10.4754 23.2225H14.4754C14.4754 20.5765 16.4424 18.709 18.4968 18.709V14.709ZM44.2505 32.0049H44.2098V36.0049H44.2505V32.0049ZM42.2098 34.0049C42.2098 35.5597 41.0481 36.5819 39.9786 36.5819V40.5819C43.5472 40.5819 46.2098 37.4672 46.2098 34.0049H42.2098ZM39.9786 36.5819H29.2377V40.5819H39.9786V36.5819ZM29.2377 36.5819C28.5183 36.5819 27.7683 36.8731 27.2402 37.4443L30.1774 40.1596C30.0197 40.3302 29.8535 40.429 29.7182 40.4859C29.5795 40.5443 29.4184 40.5819 29.2377 40.5819V36.5819ZM27.4259 37.2676L19.8991 43.561L22.4649 46.6297L29.9917 40.3363L27.4259 37.2676ZM23.182 45.0954V39.5501H19.182V45.0954H23.182ZM23.182 39.5501C23.182 38.0683 22.0248 36.5819 20.2869 36.5819V40.5819C19.5256 40.5819 19.182 39.9758 19.182 39.5501H23.182ZM20.2869 36.5819H18.4968V40.5819H20.2869V36.5819ZM18.4968 36.5819C17.4273 36.5819 16.2655 35.5597 16.2655 34.0049H12.2655C12.2655 37.4672 14.9281 40.5819 18.4968 40.5819V36.5819ZM16.2655 34.0049V23.2225H12.2655V34.0049H16.2655ZM16.2655 23.2225C16.2655 21.6677 17.4273 20.6455 18.4968 20.6455V16.6455C14.9281 16.6455 12.2655 19.7602 12.2655 23.2225H16.2655ZM18.4968 20.6455H40.0193V16.6455H18.4968V20.6455ZM40.0193 20.6455C41.0887 20.6455 42.2505 21.6677 42.2505 23.2225H46.2505C46.2505 19.7602 43.5879 16.6455 40.0193 16.6455V20.6455ZM42.2505 23.2225V34.0049H46.2505V23.2225H42.2505Z" fill="#74B1F9" mask="url(#path-2-inside-1)"/>
<mask id="path-4-inside-2" fill="white">
<path d="M38.3919 22.9144H20.0835C19.5953 22.9144 19.1884 23.3545 19.1884 23.8826C19.1884 24.4107 19.5953 24.8508 20.0835 24.8508H38.3919C38.8801 24.8508 39.2869 24.4107 39.2869 23.8826C39.2869 23.3545 38.8801 22.9144 38.3919 22.9144Z"/>
</mask>
<path d="M38.3919 22.9144H20.0835C19.5953 22.9144 19.1884 23.3545 19.1884 23.8826C19.1884 24.4107 19.5953 24.8508 20.0835 24.8508H38.3919C38.8801 24.8508 39.2869 24.4107 39.2869 23.8826C39.2869 23.3545 38.8801 22.9144 38.3919 22.9144Z" fill="#74B1F9"/>
<path d="M38.3919 20.9144H20.0835V24.9144H38.3919V20.9144ZM20.0835 20.9144C18.3457 20.9144 17.1884 22.4007 17.1884 23.8826H21.1884C21.1884 24.3082 20.8449 24.9144 20.0835 24.9144V20.9144ZM17.1884 23.8826C17.1884 25.3644 18.3457 26.8508 20.0835 26.8508V22.8508C20.8449 22.8508 21.1884 23.457 21.1884 23.8826H17.1884ZM20.0835 26.8508H38.3919V22.8508H20.0835V26.8508ZM38.3919 26.8508C40.1297 26.8508 41.2869 25.3645 41.2869 23.8826H37.2869C37.2869 23.4569 37.6305 22.8508 38.3919 22.8508V26.8508ZM41.2869 23.8826C41.2869 22.4007 40.1297 20.9144 38.3919 20.9144V24.9144C37.6305 24.9144 37.2869 24.3082 37.2869 23.8826H41.2869Z" fill="#74B1F9" mask="url(#path-4-inside-2)"/>
<mask id="path-6-inside-3" fill="white">
<path d="M38.3919 27.1393H20.0835C19.5953 27.1393 19.1884 27.5794 19.1884 28.1076C19.1884 28.6357 19.5953 29.0758 20.0835 29.0758H38.3919C38.8801 29.0758 39.2869 28.6357 39.2869 28.1076C39.2869 27.5794 38.8801 27.1393 38.3919 27.1393Z"/>
</mask>
<path d="M38.3919 27.1393H20.0835C19.5953 27.1393 19.1884 27.5794 19.1884 28.1076C19.1884 28.6357 19.5953 29.0758 20.0835 29.0758H38.3919C38.8801 29.0758 39.2869 28.6357 39.2869 28.1076C39.2869 27.5794 38.8801 27.1393 38.3919 27.1393Z" fill="#74B1F9"/>
<path d="M38.3919 25.1393H20.0835V29.1393H38.3919V25.1393ZM20.0835 25.1393C18.3457 25.1393 17.1884 26.6257 17.1884 28.1076H21.1884C21.1884 28.5332 20.8449 29.1393 20.0835 29.1393V25.1393ZM17.1884 28.1076C17.1884 29.5894 18.3457 31.0758 20.0835 31.0758V27.0758C20.8449 27.0758 21.1884 27.6819 21.1884 28.1076H17.1884ZM20.0835 31.0758H38.3919V27.0758H20.0835V31.0758ZM38.3919 31.0758C40.1297 31.0758 41.2869 29.5894 41.2869 28.1076H37.2869C37.2869 27.6819 37.6305 27.0758 38.3919 27.0758V31.0758ZM41.2869 28.1076C41.2869 26.6257 40.1297 25.1393 38.3919 25.1393V29.1393C37.6305 29.1393 37.2869 28.5332 37.2869 28.1076H41.2869Z" fill="#74B1F9" mask="url(#path-6-inside-3)"/>
<mask id="path-8-inside-4" fill="white">
<path d="M38.3919 31.4083H20.0835C19.5953 31.4083 19.1884 31.8484 19.1884 32.3765C19.1884 32.9047 19.5953 33.3448 20.0835 33.3448H38.3919C38.8801 33.3448 39.2869 32.9047 39.2869 32.3765C39.2869 31.8044 38.8801 31.4083 38.3919 31.4083Z"/>
</mask>
<path d="M38.3919 31.4083H20.0835C19.5953 31.4083 19.1884 31.8484 19.1884 32.3765C19.1884 32.9047 19.5953 33.3448 20.0835 33.3448H38.3919C38.8801 33.3448 39.2869 32.9047 39.2869 32.3765C39.2869 31.8044 38.8801 31.4083 38.3919 31.4083Z" fill="#74B1F9"/>
<path d="M38.3919 29.4083H20.0835V33.4083H38.3919V29.4083ZM20.0835 29.4083C18.3457 29.4083 17.1884 30.8947 17.1884 32.3765H21.1884C21.1884 32.8022 20.8449 33.4083 20.0835 33.4083V29.4083ZM17.1884 32.3765C17.1884 33.8584 18.3457 35.3448 20.0835 35.3448V31.3448C20.8449 31.3448 21.1884 31.9509 21.1884 32.3765H17.1884ZM20.0835 35.3448H38.3919V31.3448H20.0835V35.3448ZM38.3919 35.3448C40.1297 35.3448 41.2869 33.8584 41.2869 32.3765H37.2869C37.2869 31.9509 37.6305 31.3448 38.3919 31.3448V35.3448ZM41.2869 32.3765C41.2869 30.7891 40.0718 29.4083 38.3919 29.4083V33.4083C38.081 33.4083 37.7845 33.2775 37.5756 33.0586C37.3641 32.837 37.2869 32.5762 37.2869 32.3765H41.2869Z" fill="#74B1F9" mask="url(#path-8-inside-4)"/>
</svg>
