<svg width="34" height="30" viewBox="0 0 34 30" fill="none" xmlns="http://www.w3.org/2000/svg">
<mask id="path-1-inside-1" fill="white">
<path d="M29.8137 4.0709C29.1949 1.72372 27.0471 0 24.6081 0H5.38758C2.43897 0 0 2.42054 0 5.42787V14.4132C0 16.9438 1.78373 19.1443 4.1863 19.6944C4.76874 22.0416 6.88009 23.7653 9.39186 23.7653H10.1927V29.1932C10.1927 29.4866 10.3747 29.78 10.6296 29.9267C10.7388 29.9633 10.848 30 10.9936 30C11.1756 30 11.3212 29.9267 11.4668 29.8166L19.257 23.7653H28.6124C31.561 23.7653 34 21.3447 34 18.3374V9.35208C34 6.78484 32.2163 4.62103 29.8137 4.0709ZM4.00428 9.35208V17.9707C2.58458 17.4205 1.60171 16.0269 1.60171 14.4132V5.42787C1.60171 3.33741 3.31263 1.61369 5.38758 1.61369H24.6445C26.1734 1.61369 27.5203 2.56724 28.1028 3.92421H9.39186C6.44325 3.92421 4.00428 6.34474 4.00428 9.35208ZM32.4347 18.3374H32.3983C32.3983 20.4279 30.6874 22.1516 28.6124 22.1516H19.0021C18.8201 22.1516 18.6381 22.2249 18.5289 22.335L11.7944 27.5795V22.9584C11.7944 22.5183 11.4304 22.1516 10.9936 22.1516H9.39186C7.31692 22.1516 5.606 20.4279 5.606 18.3374V9.35208C5.606 7.26161 7.31692 5.5379 9.39186 5.5379H28.6488C30.7238 5.5379 32.4347 7.26161 32.4347 9.35208V18.3374V18.3374Z"/>
</mask>
<path d="M29.8137 4.0709C29.1949 1.72372 27.0471 0 24.6081 0H5.38758C2.43897 0 0 2.42054 0 5.42787V14.4132C0 16.9438 1.78373 19.1443 4.1863 19.6944C4.76874 22.0416 6.88009 23.7653 9.39186 23.7653H10.1927V29.1932C10.1927 29.4866 10.3747 29.78 10.6296 29.9267C10.7388 29.9633 10.848 30 10.9936 30C11.1756 30 11.3212 29.9267 11.4668 29.8166L19.257 23.7653H28.6124C31.561 23.7653 34 21.3447 34 18.3374V9.35208C34 6.78484 32.2163 4.62103 29.8137 4.0709ZM4.00428 9.35208V17.9707C2.58458 17.4205 1.60171 16.0269 1.60171 14.4132V5.42787C1.60171 3.33741 3.31263 1.61369 5.38758 1.61369H24.6445C26.1734 1.61369 27.5203 2.56724 28.1028 3.92421H9.39186C6.44325 3.92421 4.00428 6.34474 4.00428 9.35208ZM32.4347 18.3374H32.3983C32.3983 20.4279 30.6874 22.1516 28.6124 22.1516H19.0021C18.8201 22.1516 18.6381 22.2249 18.5289 22.335L11.7944 27.5795V22.9584C11.7944 22.5183 11.4304 22.1516 10.9936 22.1516H9.39186C7.31692 22.1516 5.606 20.4279 5.606 18.3374V9.35208C5.606 7.26161 7.31692 5.5379 9.39186 5.5379H28.6488C30.7238 5.5379 32.4347 7.26161 32.4347 9.35208V18.3374V18.3374Z" fill="white"/>
<path d="M29.8137 4.0709L27.8798 4.58079L28.1882 5.75046L29.3673 6.02045L29.8137 4.0709ZM4.1863 19.6944L6.12743 19.2127L5.83128 18.0193L4.63269 17.7448L4.1863 19.6944ZM10.1927 23.7653H12.1927V21.7653H10.1927V23.7653ZM10.6296 29.9267L9.63169 31.6599L9.80417 31.7592L9.99284 31.8226L10.6296 29.9267ZM11.4668 29.8166L12.6725 31.4123L12.6832 31.4043L12.6937 31.3961L11.4668 29.8166ZM19.257 23.7653V21.7653H18.5714L18.03 22.1858L19.257 23.7653ZM34 9.35208H32H34ZM4.00428 17.9707L3.28165 19.8355L6.00428 20.8905V17.9707H4.00428ZM28.1028 3.92421V5.92421H31.1377L29.9406 3.13536L28.1028 3.92421ZM9.39186 3.92421L9.39186 1.92421L9.39186 3.92421ZM32.3983 18.3374V16.3374H30.3983V18.3374H32.3983ZM18.5289 22.335L19.7577 23.9129L19.8585 23.8345L19.9484 23.7439L18.5289 22.335ZM11.7944 27.5795H9.79443V31.6719L13.0233 29.1574L11.7944 27.5795ZM31.7476 3.56102C30.9067 0.371358 27.9917 -2 24.6081 -2V2C26.1025 2 27.4831 3.07607 27.8798 4.58079L31.7476 3.56102ZM24.6081 -2H5.38758V2H24.6081V-2ZM5.38758 -2C1.32915 -2 -2 1.32123 -2 5.42787H2C2 3.51984 3.5488 2 5.38758 2V-2ZM-2 5.42787V14.4132H2V5.42787H-2ZM-2 14.4132C-2 17.8785 0.430398 20.8861 3.7399 21.6439L4.63269 17.7448C3.13705 17.4024 2 16.009 2 14.4132H-2ZM2.24517 20.1761C3.04401 23.3953 5.94071 25.7653 9.39186 25.7653V21.7653C7.81946 21.7653 6.49346 20.6878 6.12743 19.2127L2.24517 20.1761ZM9.39186 25.7653H10.1927V21.7653H9.39186V25.7653ZM8.19272 23.7653V29.1932H12.1927V23.7653H8.19272ZM8.19272 29.1932C8.19272 30.257 8.80604 31.1846 9.63169 31.6599L11.6274 28.1934C11.8135 28.3005 11.9429 28.4404 12.0286 28.5826C12.1143 28.7249 12.1927 28.9311 12.1927 29.1932H8.19272ZM9.99284 31.8226C10.1026 31.8595 10.4886 32 10.9936 32V28C11.0961 28 11.1856 28.0139 11.2508 28.029C11.2797 28.0357 11.2985 28.0415 11.3014 28.0424C11.3029 28.0428 11.3015 28.0424 11.2954 28.0404C11.2886 28.0382 11.2809 28.0356 11.2663 28.0307L9.99284 31.8226ZM10.9936 32C11.7863 32 12.3522 31.6543 12.6725 31.4123L10.2611 28.2209C10.2683 28.2155 10.3452 28.1571 10.4775 28.1022C10.6238 28.0415 10.8015 28 10.9936 28V32ZM12.6937 31.3961L20.4839 25.3447L18.03 22.1858L10.2399 28.2372L12.6937 31.3961ZM19.257 25.7653H28.6124V21.7653H19.257V25.7653ZM28.6124 25.7653C32.6708 25.7653 36 22.4441 36 18.3374H32C32 20.2454 30.4512 21.7653 28.6124 21.7653V25.7653ZM36 18.3374V9.35208H32V18.3374H36ZM36 9.35208C36 5.84192 33.5616 2.87731 30.2601 2.12136L29.3673 6.02045C30.8709 6.36474 32 7.72777 32 9.35208L36 9.35208ZM2.00428 9.35208V17.9707H6.00428V9.35208H2.00428ZM4.72691 16.1058C4.07957 15.8549 3.60171 15.2038 3.60171 14.4132H-0.398287C-0.398287 16.85 1.08959 18.9861 3.28165 19.8355L4.72691 16.1058ZM3.60171 14.4132V5.42787H-0.398287V14.4132H3.60171ZM3.60171 5.42787C3.60171 4.4279 4.43123 3.61369 5.38758 3.61369V-0.386308C2.19404 -0.386308 -0.398287 2.24692 -0.398287 5.42787H3.60171ZM5.38758 3.61369H24.6445V-0.386308H5.38758V3.61369ZM24.6445 3.61369C25.3295 3.61369 25.9801 4.04936 26.2649 4.71305L29.9406 3.13536C29.0606 1.08511 27.0174 -0.386308 24.6445 -0.386308V3.61369ZM28.1028 1.92421H9.39186V5.92421H28.1028V1.92421ZM9.39186 1.92421C5.33343 1.92421 2.00428 5.24544 2.00428 9.35208H6.00428C6.00428 7.44405 7.55308 5.92421 9.39186 5.92421L9.39186 1.92421ZM32.4347 16.3374H32.3983V20.3374H32.4347V16.3374ZM30.3983 18.3374C30.3983 19.3374 29.5688 20.1516 28.6124 20.1516V24.1516C31.806 24.1516 34.3983 21.5184 34.3983 18.3374H30.3983ZM28.6124 20.1516H19.0021V24.1516H28.6124V20.1516ZM19.0021 20.1516C18.3497 20.1516 17.6361 20.3955 17.1094 20.926L19.9484 23.7439C19.7768 23.9168 19.6016 24.0118 19.4678 24.0642C19.3292 24.1185 19.1733 24.1516 19.0021 24.1516V20.1516ZM17.3001 20.757L10.5656 26.0015L13.0233 29.1574L19.7577 23.9129L17.3001 20.757ZM13.7944 27.5795V22.9584H9.79443V27.5795H13.7944ZM13.7944 22.9584C13.7944 21.4279 12.549 20.1516 10.9936 20.1516V24.1516C10.3118 24.1516 9.79443 23.6088 9.79443 22.9584H13.7944ZM10.9936 20.1516H9.39186V24.1516H10.9936V20.1516ZM9.39186 20.1516C8.43551 20.1516 7.606 19.3374 7.606 18.3374H3.606C3.606 21.5184 6.19832 24.1516 9.39186 24.1516V20.1516ZM7.606 18.3374V9.35208H3.606V18.3374H7.606ZM7.606 9.35208C7.606 8.35211 8.43551 7.5379 9.39186 7.5379V3.5379C6.19832 3.5379 3.606 6.17112 3.606 9.35208H7.606ZM9.39186 7.5379H28.6488V3.5379H9.39186V7.5379ZM28.6488 7.5379C29.6052 7.5379 30.4347 8.35211 30.4347 9.35208H34.4347C34.4347 6.17112 31.8424 3.5379 28.6488 3.5379V7.5379ZM30.4347 9.35208V18.3374H34.4347V9.35208H30.4347Z" fill="black" mask="url(#path-1-inside-1)"/>
<mask id="path-3-inside-2" fill="white">
<path d="M27.1928 9.09532H10.8116C10.3748 9.09532 10.0107 9.46207 10.0107 9.90217C10.0107 10.3423 10.3748 10.709 10.8116 10.709H27.1928C27.6296 10.709 27.9936 10.3423 27.9936 9.90217C27.9936 9.46207 27.6296 9.09532 27.1928 9.09532Z"/>
</mask>
<path d="M27.1928 9.09532H10.8116C10.3748 9.09532 10.0107 9.46207 10.0107 9.90217C10.0107 10.3423 10.3748 10.709 10.8116 10.709H27.1928C27.6296 10.709 27.9936 10.3423 27.9936 9.90217C27.9936 9.46207 27.6296 9.09532 27.1928 9.09532Z" fill="white"/>
<path d="M27.1928 7.09532H10.8116V11.0953H27.1928V7.09532ZM10.8116 7.09532C9.25618 7.09532 8.01074 8.37157 8.01074 9.90217H12.0107C12.0107 10.5526 11.4934 11.0953 10.8116 11.0953V7.09532ZM8.01074 9.90217C8.01074 11.4328 9.25617 12.709 10.8116 12.709V8.70901C11.4934 8.70901 12.0107 9.25177 12.0107 9.90217H8.01074ZM10.8116 12.709H27.1928V8.70901H10.8116V12.709ZM27.1928 12.709C28.7482 12.709 29.9936 11.4328 29.9936 9.90217H25.9936C25.9936 9.25177 26.511 8.70901 27.1928 8.70901V12.709ZM29.9936 9.90217C29.9936 8.37157 28.7482 7.09532 27.1928 7.09532V11.0953C26.511 11.0953 25.9936 10.5526 25.9936 9.90217H29.9936Z" fill="black" mask="url(#path-3-inside-2)"/>
<mask id="path-5-inside-3" fill="white">
<path d="M27.1928 12.6161H10.8116C10.3748 12.6161 10.0107 12.9829 10.0107 13.423C10.0107 13.863 10.3748 14.2298 10.8116 14.2298H27.1928C27.6296 14.2298 27.9936 13.863 27.9936 13.423C27.9936 12.9829 27.6296 12.6161 27.1928 12.6161Z"/>
</mask>
<path d="M27.1928 12.6161H10.8116C10.3748 12.6161 10.0107 12.9829 10.0107 13.423C10.0107 13.863 10.3748 14.2298 10.8116 14.2298H27.1928C27.6296 14.2298 27.9936 13.863 27.9936 13.423C27.9936 12.9829 27.6296 12.6161 27.1928 12.6161Z" fill="white"/>
<path d="M27.1928 10.6161H10.8116V14.6161H27.1928V10.6161ZM10.8116 10.6161C9.25617 10.6161 8.01074 11.8924 8.01074 13.423H12.0107C12.0107 14.0733 11.4934 14.6161 10.8116 14.6161V10.6161ZM8.01074 13.423C8.01074 14.9535 9.25618 16.2298 10.8116 16.2298V12.2298C11.4934 12.2298 12.0107 12.7726 12.0107 13.423H8.01074ZM10.8116 16.2298H27.1928V12.2298H10.8116V16.2298ZM27.1928 16.2298C28.7482 16.2298 29.9936 14.9536 29.9936 13.423H25.9936C25.9936 12.7725 26.511 12.2298 27.1928 12.2298V16.2298ZM29.9936 13.423C29.9936 11.8924 28.7482 10.6161 27.1928 10.6161V14.6161C26.511 14.6161 25.9936 14.0734 25.9936 13.423H29.9936Z" fill="black" mask="url(#path-5-inside-3)"/>
<mask id="path-7-inside-4" fill="white">
<path d="M27.1928 16.1736H10.8116C10.3748 16.1736 10.0107 16.5403 10.0107 16.9804C10.0107 17.4205 10.3748 17.7873 10.8116 17.7873H27.1928C27.6296 17.7873 27.9936 17.4205 27.9936 16.9804C27.9936 16.5037 27.6296 16.1736 27.1928 16.1736Z"/>
</mask>
<path d="M27.1928 16.1736H10.8116C10.3748 16.1736 10.0107 16.5403 10.0107 16.9804C10.0107 17.4205 10.3748 17.7873 10.8116 17.7873H27.1928C27.6296 17.7873 27.9936 17.4205 27.9936 16.9804C27.9936 16.5037 27.6296 16.1736 27.1928 16.1736Z" fill="white"/>
<path d="M27.1928 14.1736H10.8116V18.1736H27.1928V14.1736ZM10.8116 14.1736C9.25618 14.1736 8.01074 15.4498 8.01074 16.9804H12.0107C12.0107 17.6308 11.4934 18.1736 10.8116 18.1736V14.1736ZM8.01074 16.9804C8.01074 18.511 9.25617 19.7873 10.8116 19.7873V15.7873C11.4934 15.7873 12.0107 16.33 12.0107 16.9804H8.01074ZM10.8116 19.7873H27.1928V15.7873H10.8116V19.7873ZM27.1928 19.7873C28.7482 19.7873 29.9936 18.511 29.9936 16.9804H25.9936C25.9936 16.33 26.511 15.7873 27.1928 15.7873V19.7873ZM29.9936 16.9804C29.9936 15.3536 28.6881 14.1736 27.1928 14.1736V18.1736C26.9024 18.1736 26.5974 18.0612 26.3601 17.8295C26.114 17.5894 25.9936 17.2725 25.9936 16.9804H29.9936Z" fill="black" mask="url(#path-7-inside-4)"/>
</svg>
