<svg width="113" height="99" viewBox="0 0 113 99" fill="none" xmlns="http://www.w3.org/2000/svg">
<path d="M99.0867 13.434C97.03 5.68826 89.8919 0 81.7859 0H17.9058C8.106 0 0 7.98778 0 17.912V47.5636C0 55.9144 5.92827 63.176 13.9133 64.9914C15.849 72.7372 22.8662 78.4254 31.2141 78.4254H33.8758V96.3374C33.8758 97.3056 34.4807 98.2738 35.3276 98.7579C35.6906 98.879 36.0535 99 36.5375 99C37.1424 99 37.6263 98.7579 38.1103 98.3949L64.0011 78.4254H95.0942C104.894 78.4254 113 70.4377 113 60.5134V30.8619C113 22.39 107.072 15.2494 99.0867 13.434ZM13.3084 30.8619V59.3032C8.58994 57.4878 5.32334 52.8888 5.32334 47.5636V17.912C5.32334 11.0134 11.0096 5.32518 17.9058 5.32518H81.9068C86.9882 5.32518 91.4647 8.47188 93.4004 12.9499H31.2141C21.4143 12.9499 13.3084 20.9377 13.3084 30.8619ZM107.798 60.5134H107.677C107.677 67.412 101.99 73.1002 95.0942 73.1002H63.1542C62.5492 73.1002 61.9443 73.3423 61.5814 73.7054L39.1991 91.0122V75.7628C39.1991 74.3105 37.9893 73.1002 36.5375 73.1002H31.2141C24.318 73.1002 18.6317 67.412 18.6317 60.5134V30.8619C18.6317 23.9633 24.318 18.2751 31.2141 18.2751H95.2152C102.111 18.2751 107.798 23.9633 107.798 30.8619V60.5134V60.5134Z" fill="black"/>
<path d="M90.3758 30.0146H35.9326C34.4808 30.0146 33.2709 31.2249 33.2709 32.6772C33.2709 34.1296 34.4808 35.3398 35.9326 35.3398H90.3758C91.8276 35.3398 93.0375 34.1296 93.0375 32.6772C93.0375 31.2249 91.8276 30.0146 90.3758 30.0146Z" fill="black"/>
<path d="M90.3758 41.6333H35.9326C34.4808 41.6333 33.2709 42.8436 33.2709 44.2959C33.2709 45.7482 34.4808 46.9585 35.9326 46.9585H90.3758C91.8276 46.9585 93.0375 45.7482 93.0375 44.2959C93.0375 42.8436 91.8276 41.6333 90.3758 41.6333Z" fill="black"/>
<path d="M90.3758 53.373H35.9326C34.4808 53.373 33.2709 54.5833 33.2709 56.0356C33.2709 57.4879 34.4808 58.6982 35.9326 58.6982H90.3758C91.8276 58.6982 93.0375 57.4879 93.0375 56.0356C93.0375 54.4622 91.8276 53.373 90.3758 53.373Z" fill="black"/>
</svg>
