<svg width="82" height="97" viewBox="0 0 82 97" fill="none" xmlns="http://www.w3.org/2000/svg">
<path d="M40.687 0C18.216 0 0 18.217 0 40.687C0 73.237 40.687 96.487 40.687 96.487C40.687 96.487 81.374 70.912 81.374 40.687C81.374 18.217 63.158 0 40.687 0Z" fill="#4B7CB6"/>
<circle cx="41" cy="41" r="36" fill="white"/>
<path d="M33.7601 26.9416C31.5947 25.2771 29.373 23.2256 27.7918 20.7381L26.4076 18.5605C26.1143 18.0992 25.5677 17.8938 25.0598 18.0537C24.553 18.2149 24.207 18.7045 24.207 19.2594V39.0245C23.4975 38.5906 22.6837 38.3238 21.8047 38.3238C19.1548 38.3238 17 40.5837 17 43.3628C17 46.1419 19.1548 48.4018 21.8047 48.4018C24.4546 48.4018 26.6094 46.1419 26.6094 43.3627V23.3957C28.3067 25.6458 30.4299 27.505 32.3396 28.9739C33.278 29.6948 33.8164 30.807 33.8164 32.0249C33.8164 34.1089 32.1999 35.8042 30.2129 35.8042C29.549 35.8042 29.0117 36.3676 29.0117 37.0639C29.0117 37.7602 29.549 38.3237 30.2129 38.3237C33.5244 38.3237 36.2188 35.4979 36.2188 32.0249C36.2188 30.0257 35.3003 28.1263 33.7601 26.9416Z" fill="#4B7CB6"/>
<path d="M56.4692 28.2934L39.4927 33.3324C38.9766 33.4875 38.6211 33.982 38.6211 34.5442V51.6219C37.9116 51.188 37.0978 50.9211 36.2188 50.9211C33.5689 50.9211 31.4141 53.1811 31.4141 55.9602C31.4141 58.7393 33.5689 60.9992 36.2188 60.9992C38.8686 60.9992 41.0234 58.7393 41.0234 55.9602C41.0234 55.673 41.0234 40.534 41.0234 40.534L55.5977 36.2148V46.5829C54.8882 46.1489 54.0743 45.8821 53.1953 45.8821C50.5454 45.8821 48.3906 48.142 48.3906 50.9211C48.3906 53.7003 50.5454 55.9602 53.1953 55.9602C55.8452 55.9602 58 53.7003 58 50.9211C58 50.6339 58 29.5052 58 29.5052C58 28.672 57.2401 28.065 56.4692 28.2934Z" fill="#4B7CB6"/>
</svg>
