<svg height="511pt" viewBox="0 -56 511.9998 511" width="511pt" xmlns="http://www.w3.org/2000/svg"><path d="m173.722656 277.761719c2.492188-9.378907 8.859375-19.445313 17.628906-27.984375-7.679687-20.378906-26.757812-44.371094-55.027343-56.351563-3.25-1.378906-6.628907 1.6875-5.605469 5.066407 3 9.90625 3.546875 28.125-16.074219 53.519531-2.585937 2.703125-3.863281 4.675781-4.527343 5.566406-16.851563 24.585937-4.726563 58.667969 23.933593 67.0625-3.203125-7.875-1.914062-18.101563 2.9375-25.09375 1.246094-1.792969 11.761719-13.207031 11.230469-26.367187-.074219-1.855469 2.09375-2.886719 3.472656-1.644532 10.015625 9.019532 14.433594 24.90625 13.832032 35.058594-.28125 4.675781-1.171876 8.941406-2.527344 12.667969l12.277344-8.339844c-4.109376-9.835937-4.695313-21.324219-1.550782-33.160156zm0 0"/><path d="m235.570312 277.167969c-8.847656-16.96875-6.851562-28.046875-4.101562-33.96875.976562-2.105469-.941406-4.425781-3.1875-3.824219-24.476562 6.5625-41.367188 26.578125-45.167969 40.882812-2.425781 9.132813-2.121093 17.769532.414063 25.058594l8.445312-5.734375zm0 0"/><path d="m208.132812 180.886719c-7.765624 3.890625-13.484374 12.625-15.140624 18.949219-2.90625 11.085937.617187 17.589843 7.816406 18.8125 5.519531.933593 11.589844-1.550782 12.886718-9.207032 1.234376-7.269531-6.457031-15.582031-3.074218-26.4375.460937-1.480468-1.101563-2.8125-2.488282-2.117187zm0 0"/><path d="m478.332031 282.320312c-3.441406-1.691406-7.601562-1.765624-11.285156.152344l-26.207031 13.671875c-5.460938 2.847657-11.726563 2.519531-16.710938-.304687l-9.066406 7.203125-28.484375-37.289063-7.636719-14.730468c-8.183594-15.796876-27.625-21.964844-43.421875-13.777344l-138.925781 72.007812-69.398438 45.769532h-100.542968c-11.914063 0-22.070313 9.25-22.515625 21.15625-.472657 12.539062 9.554687 22.902343 21.988281 22.902343h107.414062c4.316407 0 8.535157-1.25 12.152344-3.597656l71.523438-46.4375-60.183594 50.035156h72.460938c5.996093 0 11.902343-1.441406 17.21875-4.203125l62.628906-32.539062 29.457031-76.898438-16.625 87.871094c-2.105469 11.125 6.082031 22.371094 18.878906 22.371094h86.601563c10.226562 0 18.9375-7.953125 19.300781-18.175782.382813-10.730468-8.203125-19.546874-18.847656-19.546874h-64.636719l12.394531-65.503907-.289062 35.550781c5.117187-2.691406 5.804687-2.917968 7.871093-4.21875l13.722657 17.964844c.027343.011719.046875.023438.074219.039063h29.683593l46.113281-36.625c7.003907-5.5625 8.980469-15.097657 5.292969-22.847657zm0 0"/><path d="m79.566406 300.167969c-9.230468-7.902344-23.125-6.820313-31.023437 2.414062-7.898438 9.234375-6.816407 23.125 2.417969 31.027344l9.804687 8.390625h67.699219zm0 0"/><path d="m424.664062 265.132812 26.207032-13.671874c6.972656-3.636719 14.402344-5.386719 21.722656-5.441407 2.632812-6.820312 3.457031-14.4375 1.980469-22.144531-4.207031-21.953125-25.414063-36.339844-47.367188-32.136719-21.953125 4.207031-36.339843 25.414063-32.136719 47.367188 2.6875 14.015625 12.308594 24.941406 24.625 29.917969 1.375-1.542969 3.027344-2.878907 4.96875-3.890626zm0 0"/><path d="m40.433594 136.898438c8.753906-.851563 17.128906 3.308593 22.132812 10.539062 9.617188 13.898438 25.667969 23.007812 43.851563 23.007812 19.503906 0 36.554687-10.472656 45.847656-26.101562 5.25-8.832031 15.363281-13.6875 25.398437-11.488281 2.273438.496093 4.628907.757812 7.050782.757812 13.601562 0 25.242187-8.261719 30.238281-20.003906 3.125-7.351563 9.4375-12.941406 17.257813-14.566406 19.328124-4.011719 33.675781-23.5625 27.621093-46.03125-3.019531-11.214844-11.523437-20.28125-22.539062-23.960938-6.949219-2.320312-13.75-2.601562-19.96875-1.296875-8.964844 1.886719-18.140625-1.199218-24.085938-8.167968-9.972656-11.679688-24.800781-19.085938-41.359375-19.085938-9.972656 0-19.308594 2.6875-27.339844 7.371094-7.558593 4.414062-16.851562 4.40625-24.457031.074218-7.921875-4.511718-17.082031-7.089843-26.851562-7.089843-30.867188 0-54.828125 25.441406-54.394531 55.066406.097656 6.710937-2.710938 13.109375-7.546876 17.761719-6.957031 6.699218-11.289062 16.105468-11.289062 26.527344 0 22.882812 19.964844 38.675781 40.433594 36.6875zm0 0"/><path d="m315.144531 124.554688c2.855469 1.757812 4.898438 4.59375 5.566407 7.878906 4.964843 24.300781 26.464843 42.585937 52.234374 42.585937 14.457032 0 27.5625-5.757812 37.160157-15.101562 4.839843-4.707031 11.605469-7.054688 18.253906-5.878907 1.863281.332032 3.78125.503907 5.738281.503907 15.320313 0 28.160156-10.488281 31.804688-24.625 1.3125-5.105469 5.671875-8.914063 10.929687-9.285157 17.914063-1.273437 32.835938-15.785156 33.742188-34.515624 1.011719-20.816407-15.171875-38.015626-36.011719-38.210938-4.1875-.039062-8.214844.632812-11.964844 1.898438-6.28125 2.117187-13.234375-.210938-17.09375-5.605469-9.863281-13.785157-26-22.769531-44.242187-22.769531-17.101563 0-32.355469 7.890624-42.324219 20.230468-4.550781 5.632813-11.582031 8.5-18.796875 7.839844-2.105469-.195312-4.257813-.226562-6.445313-.085938-20.273437 1.308594-36.664062 17.804688-37.851562 38.085938-.917969 15.652344 7.039062 29.515625 19.300781 37.054688zm0 0"/><path d="m508.167969 295.253906c-3.601563 2.019532-8.171875.746094-10.203125-2.871094l-5.507813-9.824218c-5.988281-10.679688-19.179687-14.609375-30.03125-8.945313l-26.207031 13.671875c-3.671875 1.914063-8.199219.488282-10.113281-3.179687-1.914063-3.671875-.492188-8.199219 3.179687-10.113281l26.207032-13.671876c18.082031-9.429687 40.0625-2.886718 50.039062 14.902344l5.507812 9.824219c2.027344 3.613281.742188 8.179687-2.871093 10.207031zm0 0" fill="#fff"/><path d="m505.53125 275.226562c-9.976562-17.789062-31.957031-24.335937-50.039062-14.902343l-26.207032 13.667969c-3.667968 1.917968-5.09375 6.445312-3.179687 10.113281 1.917969 3.667969 6.441406 5.09375 10.113281 3.179687l26.207031-13.671875c10.851563-5.664062 24.042969-1.730469 30.03125 8.945313l5.507813 9.824218c2.027344 3.613282 6.597656 4.890626 10.203125 2.871094 3.609375-2.027344 4.898437-6.59375 2.871093-10.203125zm0 0"/></svg>