<svg width="298" height="558" viewBox="0 0 298 558" fill="none" xmlns="http://www.w3.org/2000/svg">
<path d="M7.84206 225.165C8.16247 259.993 25.1314 291.922 52.236 308.696C58.4429 312.085 62.7365 326.819 62.7365 326.819L145.884 555.072C147.145 558.533 152.018 558.594 153.366 555.166L241.131 331.839C242.437 328.518 244.296 325.463 246.574 322.716C258.681 308.114 298.297 257.813 297.998 225.165V126.601C297.957 106.657 284.29 90.1097 266.63 88.6239V54.7978C266.63 34.3114 251.884 17.7039 233.693 17.7039C220.699 17.7039 212.128 16.3438 201.674 25.0432C196.776 10.0568 184.117 0.0836781 169.937 0.0402087C158.033 0.0402087 146.599 -1.28457 135.432 11.2743C132.01 15.1964 129.371 19.8968 127.692 25.0609C117.255 16.3438 108.675 17.7039 95.6731 17.7039C79.1441 17.7583 65.2226 31.6294 63.16 50.0993C53.326 43.0249 45.8447 44.1996 32.9367 44.1996C14.7462 44.1996 0 60.807 0 81.2934V150.182C0.0254382 159.648 2.77722 168.849 7.84206 176.404V225.165ZM282.314 126.601V225.165C279.373 261.334 235.262 310.495 225.796 326.819C216.987 342.012 158.491 499.792 150.423 521.594C150.099 522.469 148.888 522.386 148.572 521.509L78.4206 326.819C78.4206 326.819 70.9953 299.79 59.8271 293.258C37.6999 279.604 23.8254 253.578 23.5262 225.165V190.597C40.2228 198.909 59.806 193.002 70.5785 176.404C77.0937 186.461 87.1107 192.907 98.1116 194.123C109.112 195.339 120.051 191.21 128.178 182.772C134.227 201.676 150.928 213.514 168.679 211.479C186.429 209.444 200.669 194.059 203.211 174.169C209.481 176.089 215.971 176.934 222.464 176.678C223.716 176.654 224.922 177.213 225.796 178.223C228 180.652 227.42 180.113 227.42 212.005C227.42 216.883 230.931 220.837 235.262 220.837C239.593 220.837 243.104 216.883 243.104 212.005V182.595C243.133 176.332 240.938 170.316 237.006 165.887C233.075 161.458 227.734 158.983 222.173 159.014C213.478 160.239 204.712 157.459 197.863 151.304C188.068 140.705 184.014 122.794 193.856 112.24C197.622 108.216 202.623 105.988 207.815 106.023H264.042C274.13 106.032 282.306 115.24 282.314 126.601ZM221.146 35.3677H233.693C243.222 35.3677 250.946 44.0668 250.946 54.7978V88.3589C200.223 88.3589 208.599 88.2088 203.894 88.774V54.7978C203.894 44.0668 211.618 35.3677 221.146 35.3677ZM141.157 38.2822C141.238 26.9552 149.372 17.7952 159.429 17.7039H169.937C180.025 17.7137 188.201 26.9212 188.209 38.2822V94.8768C165.695 111.357 168.934 146.013 188.209 165.081C188.853 178.43 180.987 190.413 169.467 193.635C162.339 195.115 155 192.885 149.501 187.567C144.002 182.249 140.935 174.415 141.157 166.256V38.2822ZM78.4206 54.7978C78.4206 44.0668 86.1448 35.3677 95.6731 35.3677H108.22C117.749 35.3677 125.473 44.0668 125.473 54.7978V150.182C125.473 164.815 114.94 176.678 101.947 176.678C88.9536 176.678 78.4206 164.815 78.4206 150.182V54.7978ZM15.6841 81.2934C15.6841 70.5625 23.4083 61.8633 32.9367 61.8633H45.484C55.0123 61.8633 62.7365 70.5625 62.7365 81.2934V150.182C62.7365 164.815 52.2035 176.678 39.2103 176.678C26.2171 176.678 15.6841 164.815 15.6841 150.182V81.2934Z" fill="black" fill-opacity="0.05"/>
</svg>
