<svg width="58" height="55" viewBox="0 0 58 55" fill="none" xmlns="http://www.w3.org/2000/svg">
<ellipse rx="29" ry="27.5" transform="matrix(-1 0 0 1 29 27.5)" fill="#74B1F9"/>
<path d="M36.8875 26.9985L21.0423 19.0759C20.7535 18.9318 20.4034 18.9967 20.1859 19.238C19.9684 19.4785 19.9389 19.8336 20.1125 20.1073L24.9078 27.6431L20.1125 35.179C19.9389 35.4527 19.9684 35.8077 20.1859 36.0483C20.3257 36.2038 20.5215 36.286 20.7203 36.286C20.8298 36.286 20.94 36.2615 21.0423 36.2103L36.8875 28.2877C37.1316 28.1653 37.2858 27.9161 37.2858 27.6431C37.2858 27.3702 37.1316 27.1209 36.8875 26.9985Z" fill="white"/>
</svg>
