<svg width="57" height="57" viewBox="0 0 57 57" fill="none" xmlns="http://www.w3.org/2000/svg">
<circle cx="28.5" cy="28.5" r="26.5" transform="rotate(-179.566 28.5 28.5)" fill="white" stroke="#B3B3B3" stroke-width="2"/>
<path d="M34 33.08C33.24 33.08 32.56 33.38 32.04 33.85L24.91 29.7C24.96 29.47 25 29.24 25 29C25 28.76 24.96 28.53 24.91 28.3L31.96 24.19C32.5 24.69 33.21 25 34 25C35.66 25 37 23.66 37 22C37 20.34 35.66 19 34 19C32.34 19 31 20.34 31 22C31 22.24 31.04 22.47 31.09 22.7L24.04 26.81C23.5 26.31 22.79 26 22 26C20.34 26 19 27.34 19 29C19 30.66 20.34 32 22 32C22.79 32 23.5 31.69 24.04 31.19L31.16 35.35C31.11 35.56 31.08 35.78 31.08 36C31.08 37.61 32.39 38.92 34 38.92C35.61 38.92 36.92 37.61 36.92 36C36.92 34.39 35.61 33.08 34 33.08Z" fill="#B3B3B3"/>
</svg>
