<svg width="140" height="130" viewBox="0 0 140 130" fill="none" xmlns="http://www.w3.org/2000/svg">
<path d="M56.371 33.8612H56.3709C47.8698 33.8614 40.9239 26.8714 40.9239 18.1807C40.9239 9.49008 47.8698 2.5 56.371 2.5C64.8709 2.5 71.8176 9.4901 71.8176 18.1807C71.8176 26.8713 64.8709 33.8612 56.371 33.8612ZM57.201 44.6096C54.6648 44.6096 52.2248 45.0449 49.9519 45.8448C49.6045 43.828 48.9875 41.9043 48.1425 40.1114C48.3472 40.1052 48.5526 40.1021 48.7587 40.1021H63.9854C64.1955 40.1021 64.4049 40.1053 64.6134 40.1118C63.8344 41.7611 63.2492 43.5211 62.8897 45.3608C61.0727 44.8708 59.1656 44.6096 57.201 44.6096ZM91.8283 110.011V107.295C91.8283 95.9996 85.1695 86.2419 75.5978 81.8435C77.8905 78.7421 79.4319 75.0447 79.9573 71.0267H91.5724C101.831 71.0267 110.241 79.4978 110.239 89.9717V89.972V105.771C109.192 106.278 102.715 109.221 91.8283 110.011ZM22.5677 109.849C16.6119 109.313 9.90499 108.088 2.5 105.783V89.9736C2.5 79.498 10.9084 71.0267 21.1719 71.0267H34.4417C34.9683 75.043 36.5079 78.7409 38.7999 81.8428C29.2262 86.2404 22.5689 95.9995 22.5677 107.293V107.293V109.849ZM119.089 90.4395C119.089 79.1447 112.43 69.3859 102.859 64.9879C105.151 61.8866 106.693 58.1893 107.218 54.1715H118.83C129.093 54.1715 137.501 62.6434 137.5 73.116V73.1163V88.916C136.474 89.414 129.994 92.3651 119.089 93.1557V90.4395ZM31.5138 123.076V107.268C31.5138 96.7908 39.9239 88.3184 50.1857 88.3184H64.2144C74.4771 88.3184 82.8824 96.7901 82.8822 107.268V123.062C81.7258 123.625 73.2424 127.5 59.0254 127.5C51.4325 127.5 42.1858 126.395 31.5138 123.076ZM111.814 19.5285H111.814C119.537 19.5285 125.85 25.8765 125.85 33.7792C125.85 41.6791 119.537 48.028 111.814 48.028C110.167 48.028 108.589 47.7306 107.114 47.1921C106.081 41.058 102.661 35.7532 97.8716 32.2573C98.6221 25.0777 104.6 19.5276 111.814 19.5285ZM79.8544 64.0465C78.8204 57.9126 75.3999 52.6079 70.6107 49.1124C71.3609 41.9311 77.3395 36.3818 84.5551 36.3816C92.2761 36.3816 98.5893 42.7297 98.5893 50.6322C98.5893 58.5339 92.2759 64.8834 84.5551 64.8834C82.9082 64.8834 81.3295 64.5855 79.8544 64.0465ZM71.2339 67.9277C71.2339 75.8269 64.9198 82.1784 57.2007 82.1784C49.4802 82.1784 43.1638 75.8262 43.1636 67.9277C43.1636 60.0277 49.48 53.677 57.2007 53.677C64.9199 53.677 71.2339 60.0273 71.2339 67.9277ZM34.7231 63.227C32.7643 64.283 30.5465 64.8837 28.1888 64.8837C20.4652 64.8837 14.1532 58.5356 14.1532 50.6325C14.1532 42.7298 20.4653 36.3818 28.1888 36.3818C35.8172 36.3818 42.077 42.5874 42.2172 50.3656C38.4616 53.6461 35.7679 58.131 34.7231 63.227Z" fill="white" stroke="url(#paint0_linear)" stroke-width="5"/>
<defs>
<linearGradient id="paint0_linear" x1="70" y1="0" x2="70" y2="130" gradientUnits="userSpaceOnUse">
<stop offset="0.177083" stop-color="#326ECD" stop-opacity="0.89"/>
<stop offset="0.9998" stop-color="#C700FF"/>
</linearGradient>
</defs>
</svg>
