<svg width="82" height="97" viewBox="0 0 82 97" fill="none" xmlns="http://www.w3.org/2000/svg">
<path d="M40.687 0C18.216 0 0 18.217 0 40.687C0 73.237 40.687 96.487 40.687 96.487C40.687 96.487 81.374 70.912 81.374 40.687C81.374 18.217 63.158 0 40.687 0Z" fill="#0D359B"/>
<circle cx="41" cy="41" r="36" fill="white"/>
<path d="M26.1289 48.8536C25.5952 48.8108 25.1222 48.569 24.77 48.205C24.3361 47.7568 24.0857 47.1229 24.1366 46.4418L24.2218 45.3042L23.361 44.9698V48.205H23.3617V66.0177C23.3617 67.2484 24.3245 68.2462 25.5121 68.2462C26.6997 68.2462 27.6624 67.2485 27.6624 66.0177V48.9769L26.1289 48.8536Z" fill="#0D359B"/>
<path d="M32.2976 49.3429C32.1774 49.3429 32.4464 49.3617 28.5907 49.0518V66.0178C28.5907 67.2486 29.5534 68.2464 30.741 68.2464C31.9285 68.2464 32.8914 67.2487 32.8914 66.0178C32.8914 50.7567 32.8914 49.266 32.8914 49.266C32.7145 49.3149 32.4878 49.3429 32.2976 49.3429Z" fill="#0D359B"/>
<path d="M32.8841 30.4083C31.7877 30.4083 24.2953 30.4083 23.3067 30.4083C20.9435 30.4083 19.0116 32.3699 19 34.7903C19 36.6447 19 39.0477 19 40.6476C19 41.4219 19.4636 42.1149 20.1632 42.3867L26.486 44.8424C27.4125 45.2022 28.4456 44.7154 28.7928 43.755C29.1401 42.7946 28.6703 41.7243 27.7436 41.3643L22.5838 39.3604C22.5838 37.6959 22.5838 38.7803 22.5837 34.7997C22.5837 34.7996 22.5837 34.7994 22.5837 34.7993C22.5849 34.5773 22.7592 34.3982 22.9734 34.3989C23.1876 34.3995 23.3609 34.5797 23.3609 34.8017V38.321L24.7052 38.843L24.8573 36.8108C24.9485 35.5923 25.9879 34.65 27.1845 34.7462L32.8525 35.2018V34.7624C32.8525 34.565 32.9951 34.399 33.1842 34.3762C33.3733 34.3533 33.5492 34.4808 33.5928 34.6731C34.2078 33.559 35.1653 32.6688 36.3167 32.1548C35.5287 31.0951 34.2819 30.4083 32.8841 30.4083Z" fill="#0D359B"/>
<path d="M28.126 29.1823C30.1773 29.1823 31.8402 27.4589 31.8402 25.333C31.8402 23.2071 30.1773 21.4838 28.126 21.4838C26.0747 21.4838 24.4118 23.2071 24.4118 25.333C24.4118 27.4589 26.0747 29.1823 28.126 29.1823Z" fill="#0D359B"/>
<path d="M27.0731 36.2359C26.6757 36.2038 26.3257 36.5118 26.2948 36.9263L26.1106 39.3887L28.1689 40.188C29.7223 40.7913 30.5097 42.5855 29.9276 44.1956C29.3455 45.8056 27.6141 46.6215 26.0607 46.0184L25.627 45.8499L25.5742 46.5574C25.5434 46.9708 25.8416 47.3319 26.2403 47.3639C26.2843 47.3673 32.2537 47.8484 32.2977 47.8484C32.5165 47.8484 32.7153 47.7458 32.8491 47.5825C32.8491 37.0451 32.8491 36.7052 32.8491 36.7052L27.0731 36.2359Z" fill="#0D359B"/>
<path d="M43.417 24.2377C41.3479 24.2377 39.7032 25.981 39.7032 28.0865C39.7032 30.2109 41.365 31.9353 43.417 31.9353C45.4633 31.9353 47.1308 30.2165 47.1308 28.0865C47.1308 25.9418 45.4478 24.2377 43.417 24.2377Z" fill="#0D359B"/>
<path d="M62.5624 14H50.9154C50.2827 14 49.77 14.5315 49.77 15.187V20.7824C49.77 21.4487 50.2974 21.9694 50.9154 21.9694C52.8462 21.9694 54.1384 21.9694 55.8377 21.9694V24.521C55.3049 24.6962 54.9158 25.0731 54.6753 25.7043L52.3311 31.8558L47.0721 33.2204C43.1448 33.1426 45.6359 33.1621 38.5974 33.1621H38.5973C36.2384 33.1621 34.3025 35.1268 34.2906 37.5442V51.1875C34.2906 52.2375 35.1234 53.0446 36.0825 53.0446C37.0721 53.0446 37.8744 52.213 37.8744 51.1875C37.8744 50.6189 37.8744 38.201 37.8744 37.5535C37.8744 37.5534 37.8744 37.5532 37.8744 37.553C37.8757 37.3311 38.0501 37.152 38.2642 37.1527C38.4783 37.1534 38.6515 37.3336 38.6515 37.5555C38.6516 42.1678 38.6523 68.712 38.6523 68.7131C38.6523 68.7135 38.6524 68.714 38.6524 68.7144V68.7715C38.6524 69.9986 39.6108 70.9999 40.8046 70.9999C41.9882 70.9999 42.9529 69.9968 42.9529 68.7715V50.959H43.8813V68.7717C43.8813 69.9988 44.8397 71 46.0336 71C47.2137 71 48.1819 69.9998 48.1819 68.7717C48.1819 25.5231 48.1428 79.3542 48.1428 36.7714C49.3207 36.4658 52.9318 35.5287 54.0945 35.227C54.655 35.0815 55.1136 34.6647 55.3259 34.1078L55.8372 32.7657V34.2871C55.8372 34.8029 56.2407 35.221 56.7385 35.221C57.2363 35.221 57.6397 34.8029 57.6397 34.2871V28.036L58.0447 26.9733C58.3161 26.2611 58.1328 25.4796 57.6397 24.9724V21.9694H62.562C63.1946 21.9694 63.7074 21.4379 63.7074 20.7824V15.187H63.7076C63.7077 14.5315 63.195 14 62.5624 14Z" fill="#0D359B"/>
</svg>
