<svg width="82" height="97" viewBox="0 0 82 97" fill="none" xmlns="http://www.w3.org/2000/svg">
<path d="M40.687 0C18.216 0 0 18.217 0 40.687C0 73.237 40.687 96.487 40.687 96.487C40.687 96.487 81.374 70.912 81.374 40.687C81.374 18.217 63.158 0 40.687 0Z" fill="#0D359B"/>
<circle cx="41" cy="41" r="36" fill="white"/>
<path d="M52 33.875H32V36.625H52V33.875Z" fill="#0D359B"/>
<path d="M52 40.75H32V43.5H52V40.75Z" fill="#0D359B"/>
<path d="M42 47.625H32V50.375H42V47.625Z" fill="#0D359B"/>
<path d="M60.5714 21.5H54.8571V25.625H57.7143V55.875H26.2857V25.625H29.1429V21.5H23.4286C22.6386 21.5 22 22.116 22 22.875V58.625C22 59.384 22.6386 60 23.4286 60H60.5714C61.3614 60 62 59.384 62 58.625V22.875C62 22.116 61.3614 21.5 60.5714 21.5Z" fill="#0D359B"/>
<path d="M52 21.5H47.7143C47.7143 18.4626 45.1557 16 42 16C38.8443 16 36.2857 18.4626 36.2857 21.5H32V28.375H52V21.5Z" fill="#0D359B"/>
</svg>
