<svg width="298" height="558" viewBox="0 0 298 558" fill="none" xmlns="http://www.w3.org/2000/svg">
<path d="M143.371 251.861H143.371C134.87 251.861 127.924 244.871 127.924 236.181C127.924 227.49 134.87 220.5 143.371 220.5C151.871 220.5 158.818 227.49 158.818 236.181C158.818 244.871 151.871 251.861 143.371 251.861ZM144.201 262.61C141.665 262.61 139.225 263.045 136.952 263.845C136.604 261.828 135.987 259.904 135.143 258.111C135.347 258.105 135.553 258.102 135.759 258.102H150.985C151.196 258.102 151.405 258.105 151.613 258.112C150.834 259.761 150.249 261.521 149.89 263.361C148.073 262.871 146.166 262.61 144.201 262.61ZM178.828 328.011V325.295C178.828 314 172.17 304.242 162.598 299.843C164.89 296.742 166.432 293.045 166.957 289.027H178.572C188.831 289.027 197.241 297.498 197.239 307.972V307.972V323.771C196.192 324.278 189.715 327.221 178.828 328.011ZM109.568 327.849C103.612 327.313 96.905 326.088 89.5 323.783V307.974C89.5 297.498 97.9084 289.027 108.172 289.027H121.442C121.968 293.043 123.508 296.741 125.8 299.843C116.226 304.24 109.569 314 109.568 325.293V325.293V327.849ZM206.089 308.44C206.089 297.145 199.43 287.386 189.859 282.988C192.151 279.887 193.693 276.189 194.218 272.172H205.83C216.093 272.172 224.501 280.643 224.5 291.116V291.116V306.916C223.474 307.414 216.994 310.365 206.089 311.156V308.44ZM118.514 341.076V325.268C118.514 314.791 126.924 306.318 137.186 306.318H151.214C161.477 306.318 169.882 314.79 169.882 325.268V341.062C168.726 341.625 160.242 345.5 146.025 345.5C138.433 345.5 129.186 344.395 118.514 341.076ZM198.814 237.528H198.814C206.537 237.528 212.85 243.877 212.85 251.779C212.85 259.679 206.537 266.028 198.814 266.028C197.167 266.028 195.589 265.731 194.114 265.192C193.081 259.058 189.661 253.753 184.872 250.257C185.622 243.078 191.6 237.528 198.814 237.528ZM166.854 282.047C165.82 275.913 162.4 270.608 157.611 267.112C158.361 259.931 164.339 254.382 171.555 254.382C179.276 254.382 185.589 260.73 185.589 268.632C185.589 276.534 179.276 282.883 171.555 282.883C169.908 282.883 168.33 282.586 166.854 282.047ZM158.234 285.928C158.234 293.827 151.92 300.178 144.201 300.178C136.48 300.178 130.164 293.826 130.164 285.928C130.164 278.028 136.48 271.677 144.201 271.677C151.92 271.677 158.234 278.027 158.234 285.928ZM121.723 281.227C119.764 282.283 117.546 282.884 115.189 282.884C107.465 282.884 101.153 276.536 101.153 268.633C101.153 260.73 107.465 254.382 115.189 254.382C122.817 254.382 129.077 260.587 129.217 268.366C125.462 271.646 122.768 276.131 121.723 281.227Z" fill="white" stroke="url(#paint0_linear)" stroke-width="5"/>
<path d="M7.84206 225.165C8.16247 259.993 25.1314 291.922 52.236 308.696C58.4429 312.085 62.7365 326.819 62.7365 326.819L145.884 555.072C147.145 558.533 152.018 558.594 153.366 555.166L241.131 331.839C242.437 328.518 244.296 325.463 246.574 322.716C258.681 308.114 298.297 257.813 297.998 225.165V126.601C297.957 106.657 284.29 90.1097 266.63 88.6239V54.7978C266.63 34.3114 251.884 17.7039 233.693 17.7039C220.699 17.7039 212.128 16.3438 201.674 25.0432C196.776 10.0568 184.117 0.0836781 169.937 0.0402087C158.033 0.0402087 146.599 -1.28457 135.432 11.2743C132.01 15.1964 129.371 19.8968 127.692 25.0609C117.255 16.3438 108.675 17.7039 95.6731 17.7039C79.1441 17.7583 65.2226 31.6294 63.16 50.0993C53.326 43.0249 45.8447 44.1996 32.9367 44.1996C14.7462 44.1996 0 60.807 0 81.2934V150.182C0.0254382 159.648 2.77722 168.849 7.84206 176.404V225.165ZM282.314 126.601V225.165C279.373 261.334 235.262 310.495 225.796 326.819C216.987 342.012 158.491 499.792 150.423 521.594C150.099 522.469 148.888 522.386 148.572 521.509L78.4206 326.819C78.4206 326.819 70.9953 299.79 59.8271 293.258C37.6999 279.604 23.8254 253.578 23.5262 225.165V190.597C40.2228 198.909 59.806 193.002 70.5785 176.404C77.0937 186.461 87.1107 192.907 98.1116 194.123C109.112 195.34 120.051 191.21 128.178 182.772C134.227 201.676 150.928 213.514 168.679 211.479C186.429 209.444 200.669 194.059 203.211 174.169C209.481 176.089 215.971 176.934 222.464 176.678C223.716 176.654 224.922 177.213 225.796 178.223C228 180.652 227.42 180.113 227.42 212.005C227.42 216.883 230.931 220.837 235.262 220.837C239.593 220.837 243.104 216.883 243.104 212.005V182.595C243.133 176.332 240.938 170.316 237.006 165.887C233.075 161.458 227.734 158.983 222.173 159.014C213.478 160.239 204.712 157.459 197.863 151.304C188.068 140.705 184.014 122.794 193.856 112.24C197.622 108.216 202.623 105.988 207.815 106.023H264.042C274.13 106.032 282.306 115.24 282.314 126.601ZM221.146 35.3677H233.693C243.222 35.3677 250.946 44.0668 250.946 54.7978V88.3589C200.223 88.3589 208.599 88.2088 203.894 88.774V54.7978C203.894 44.0668 211.618 35.3677 221.146 35.3677ZM141.157 38.2822C141.238 26.9552 149.372 17.7952 159.429 17.7039H169.937C180.025 17.7137 188.201 26.9212 188.209 38.2822V94.8768C165.695 111.357 168.934 146.013 188.209 165.081C188.853 178.43 180.987 190.413 169.467 193.635C162.339 195.115 155 192.885 149.501 187.567C144.002 182.249 140.935 174.415 141.157 166.256V38.2822ZM78.4206 54.7978C78.4206 44.0668 86.1448 35.3677 95.6731 35.3677H108.22C117.749 35.3677 125.473 44.0668 125.473 54.7978V150.182C125.473 164.815 114.94 176.678 101.947 176.678C88.9536 176.678 78.4206 164.815 78.4206 150.182V54.7978ZM15.6841 81.2934C15.6841 70.5625 23.4083 61.8633 32.9367 61.8633H45.484C55.0123 61.8633 62.7365 70.5625 62.7365 81.2934V150.182C62.7365 164.815 52.2035 176.678 39.2103 176.678C26.2171 176.678 15.6841 164.815 15.6841 150.182V81.2934Z" fill="black" fill-opacity="0.05"/>
<defs>
<linearGradient id="paint0_linear" x1="157" y1="218" x2="157" y2="348" gradientUnits="userSpaceOnUse">
<stop offset="0.177083" stop-color="#326ECD" stop-opacity="0.89"/>
<stop offset="0.9998" stop-color="#FF6CB3"/>
</linearGradient>
</defs>
</svg>
