<svg width="28" height="28" viewBox="0 0 28 28" fill="none" xmlns="http://www.w3.org/2000/svg">
<path d="M14 1C6.82038 1 1 6.82038 1 14C1 21.1796 6.82038 27 14 27C21.1796 27 27 21.1796 27 14C26.992 6.82376 21.1762 1.00804 14 1ZM25.2432 18.5542L21.5461 19.1922C21.9693 17.6402 22.1978 16.0416 22.2264 14.4333H26.1225C26.0737 15.848 25.776 17.243 25.2432 18.5542ZM1.87746 14.4333H5.77365C5.80221 16.0416 6.03073 17.6402 6.45391 19.1922L2.75682 18.5542C2.22404 17.243 1.92633 15.848 1.87746 14.4333ZM2.75682 9.44577L6.45391 8.80783C6.03073 10.3598 5.80221 11.9584 5.77365 13.5667H1.87746C1.92633 12.152 2.22404 10.757 2.75682 9.44577ZM14.4333 7.95767C15.9904 7.97756 17.5437 8.11932 19.0788 8.3819L20.6083 8.64575C21.0783 10.2449 21.3311 11.9 21.3601 13.5667H14.4333V7.95767ZM19.2264 7.52772C17.6427 7.2571 16.0399 7.11089 14.4333 7.091V1.891C16.9176 2.12967 19.0756 4.40425 20.2986 7.71455L19.2264 7.52772ZM13.5667 7.091C11.9601 7.11089 10.3577 7.2571 8.77397 7.52772L7.70143 7.71328C8.92441 4.40213 11.0824 2.12671 13.5667 1.8891V7.091ZM8.92166 8.3819C10.4565 8.11932 12.0096 7.97756 13.5667 7.95767V13.5667H6.63989C6.66888 11.9 6.92173 10.2449 7.39167 8.64575L8.92166 8.3819ZM6.63989 14.4333H13.5667V20.0423C12.0096 20.0224 10.4563 19.8807 8.92124 19.6181L7.39167 19.3542C6.92173 17.7551 6.66888 16.1 6.63989 14.4333ZM8.77355 20.4723C10.3573 20.7433 11.9599 20.8902 13.5667 20.9113V26.1113C11.0824 25.8724 8.92441 23.5979 7.70143 20.2876L8.77355 20.4723ZM14.4333 20.9113C16.0399 20.8902 17.6423 20.7433 19.226 20.4723L20.2986 20.2867C19.0756 23.5979 16.9176 25.8733 14.4333 26.1109V20.9113ZM19.0783 19.6181C17.5435 19.8807 15.9904 20.0224 14.4333 20.0423V14.4333H21.3601C21.3311 16.1 21.0783 17.7551 20.6083 19.3542L19.0783 19.6181ZM22.2264 13.5667C22.1978 11.9584 21.9693 10.3598 21.5461 8.80783L25.2432 9.44577C25.776 10.757 26.0737 12.152 26.1225 13.5667H22.2264ZM24.8048 8.49066L21.2609 7.87917C20.6238 5.80073 19.4319 3.93537 17.8132 2.48408C20.84 3.49421 23.3501 5.6505 24.8048 8.49066ZM10.1868 2.48408C8.5681 3.93537 7.37622 5.80073 6.73913 7.87917L3.19523 8.49066C4.6499 5.6505 7.15998 3.49421 10.1868 2.48408ZM3.19523 19.5093L6.73913 20.1208C7.37622 22.1993 8.5681 24.0646 10.1868 25.5159C7.15998 24.5058 4.6499 22.3495 3.19523 19.5093ZM17.8132 25.5159C19.4319 24.0646 20.6238 22.1993 21.2609 20.1208L24.8048 19.5093C23.3501 22.3495 20.84 24.5058 17.8132 25.5159Z" fill="white" stroke="black"/>
</svg>
