<svg width="29" height="30" viewBox="0 0 29 30" fill="none" xmlns="http://www.w3.org/2000/svg">
<path d="M27.7212 13.4423H15.5577V1.80769C15.5577 1.22279 15.0839 0.75 14.5 0.75C13.9162 0.75 13.4423 1.22279 13.4423 1.80769V13.4423H1.27888C0.695038 13.4423 0.221191 13.9151 0.221191 14.5C0.221191 15.0849 0.695038 15.5577 1.27888 15.5577H13.4423V28.25C13.4423 28.8349 13.9162 29.3077 14.5 29.3077C15.0839 29.3077 15.5577 28.8349 15.5577 28.25V15.5577H27.7212C28.305 15.5577 28.7789 15.0849 28.7789 14.5C28.7789 13.9151 28.305 13.4423 27.7212 13.4423Z" fill="white"/>
</svg>
