<svg width="82" height="97" viewBox="0 0 82 97" fill="none" xmlns="http://www.w3.org/2000/svg">
<path d="M40.687 0C18.216 0 0 18.217 0 40.687C0 73.237 40.687 96.487 40.687 96.487C40.687 96.487 81.374 70.912 81.374 40.687C81.374 18.217 63.158 0 40.687 0Z" fill="#A30000"/>
<circle cx="41" cy="41" r="36" fill="white"/>
<path d="M14 33.9473H20.6719V37.0527H14V33.9473Z" fill="#A30000"/>
<path d="M63.3281 33.9473H70V37.0527H63.3281V33.9473Z" fill="#A30000"/>
<path d="M55.921 20.1291L60.5609 15.7378L62.8808 17.9335L58.2409 22.3248L55.921 20.1291Z" fill="#A30000"/>
<path d="M25.7587 22.3244L21.1188 17.9331L23.4387 15.7374L28.0786 20.1288L25.7587 22.3244Z" fill="#A30000"/>
<path d="M40.3594 9H43.6406V15.3145H40.3594V9Z" fill="#A30000"/>
<path d="M27.2344 55.7891C25.422 55.7891 23.9531 57.1792 23.9531 58.8945V62H60.0469V58.8945C60.0469 57.1792 58.578 55.7891 56.7656 55.7891H27.2344Z" fill="#A30000"/>
<path d="M27.2344 35.5V52.6836H56.7656V35.5C56.7656 27.7942 50.142 21.5254 42 21.5254C33.858 21.5254 27.2344 27.7942 27.2344 35.5ZM40.3594 30.8418H43.6406V40.1582H40.3594V30.8418ZM40.3594 43.2637H43.6406V46.3691H40.3594V43.2637Z" fill="#A30000"/>
</svg>
