<svg height="511pt" viewBox="-76 0 511 511.99899" width="511pt" xmlns="http://www.w3.org/2000/svg"><path d="m109.066406 167.628906 51.082032 34.539063c7.703124 5.207031 17.890624 4.433593 24.714843-1.699219l61.003907-54.789062c8.269531-7.425782 8.953124-20.144532 1.527343-28.414063s-20.148437-8.953125-28.414062-1.527344l-49.3125 44.285157-38.058594-25.734376 33.382813 13.03125v-10.972656c0-16.878906-13.683594-30.5625-30.566407-30.5625h-54.503906c-16.878906 0-30.5625 13.683594-30.5625 30.5625v156.816406h.023437l-3.261718 77.980469-43.71875 106.113281c-5.292969 12.84375.832031 27.542969 13.675781 32.835938 12.894531 5.316406 27.566406-.886719 32.835937-13.675781l45.410157-110.210938c1.117187-2.710937 1.75-5.597656 1.871093-8.527343l3.496094-83.46875c.011719-.351563.015625-.699219.015625-1.050782h12.007813l28.722656 78.316406 16.164062 118.753907c1.71875 12.613281 12.507813 21.765625 24.890626 21.761719 15.304687 0 27.007812-13.476563 24.953124-28.546876l-16.53125-121.460937c-.246093-1.796875-.683593-3.5625-1.308593-5.265625l-23.613281-64.382812v-72.859376c-4.386719-1.152343-8.511719-3.457031-11.886719-6.894531zm0 0"/><path d="m159.699219 45.246094c0 24.988281-20.257813 45.242187-45.242188 45.242187-24.988281 0-45.246093-20.253906-45.246093-45.242187 0-24.988282 20.257812-45.246094 45.246093-45.246094 24.984375 0 45.242188 20.257812 45.242188 45.246094zm0 0"/><path d="m280.710938 21.019531c-4.167969 0-7.546876 3.378907-7.546876 7.546875v1.414063l-81.613281 15.304687c-.652343-3.5-3.71875-6.15625-7.410156-6.15625-4.167969 0-7.546875 3.378906-7.546875 7.546875v34.628907c0 4.167968 3.378906 7.546874 7.546875 7.546874 3.691406 0 6.757813-2.652343 7.410156-6.15625l8.792969 1.652344 12.011719 20.558594c5.703125-4.445312 12.484375-6.71875 19.289062-6.875l-5.125-8.777344 46.644531 8.746094v1.414062c0 4.167969 3.375 7.546876 7.542969 7.546876s7.546875-3.378907 7.546875-7.546876v-70.847656c0-4.167968-3.375-7.546875-7.542968-7.546875zm0 0"/><path d="m353.671875 57.953125h-33.550781c-3.335938 0-6.039063 2.703125-6.039063 6.035156 0 3.335938 2.707031 6.039063 6.039063 6.039063h33.550781c3.332031 0 6.035156-2.703125 6.035156-6.039063 0-3.332031-2.703125-6.035156-6.035156-6.035156zm0 0"/><path d="m349.726562 93.542969-24.496093-9.054688c-3.125-1.160156-6.597657.441407-7.753907 3.566407-1.15625 3.128906.441407 6.601562 3.570313 7.757812l24.496094 9.054688c3.125 1.152343 6.597656-.445313 7.753906-3.570313 1.15625-3.128906-.441406-6.601563-3.570313-7.753906zm0 0"/><path d="m325.429688 43.417969 24.496093-10.0625c3.085938-1.265625 4.558594-4.792969 3.292969-7.875-1.269531-3.085938-4.796875-4.558594-7.878906-3.292969l-24.496094 10.058594c-3.082031 1.269531-4.554688 4.796875-3.289062 7.878906 1.265624 3.078125 4.789062 4.558594 7.875 3.292969zm0 0"/></svg>