<svg width="23" height="24" viewBox="0 0 23 24" fill="none" xmlns="http://www.w3.org/2000/svg">
<path d="M18.4633 14.9818C17.1441 14.9818 15.9805 15.6102 15.2203 16.5727L8.1692 12.9667C8.26151 12.6224 8.32786 12.2667 8.32786 11.8923C8.32786 11.4848 8.24906 11.1011 8.1391 10.7277L15.1591 7.13837C15.9151 8.14436 17.1088 8.80187 18.4643 8.80187C20.7604 8.80187 22.6178 6.94447 22.6178 4.65043C22.6178 2.35846 20.7604 0.5 18.4643 0.5C16.1734 0.5 14.314 2.35846 14.314 4.65038C14.314 5.02582 14.3804 5.38256 14.4737 5.72791L7.42356 9.33386C6.66234 8.37042 5.49664 7.73988 4.17541 7.73988C1.88137 7.73988 0.0250244 9.59934 0.0250244 11.8923C0.0250244 14.1853 1.88141 16.0438 4.17541 16.0438C5.53294 16.0438 6.72561 15.3842 7.48471 14.3772L14.5016 17.9665C14.3917 18.3388 14.3118 18.7257 14.3118 19.1343C14.3118 21.4273 16.1713 23.2857 18.4622 23.2857C20.7583 23.2857 22.6157 21.4273 22.6157 19.1343C22.6168 16.8392 20.7594 14.9818 18.4633 14.9818Z" fill="white"/>
</svg>
