<svg width="82" height="97" viewBox="0 0 82 97" fill="none" xmlns="http://www.w3.org/2000/svg">
<path d="M40.687 0C18.216 0 0 18.217 0 40.687C0 73.237 40.687 96.487 40.687 96.487C40.687 96.487 81.374 70.912 81.374 40.687C81.374 18.217 63.158 0 40.687 0Z" fill="#0D359B"/>
<circle cx="41" cy="41" r="36" fill="white"/>
<path d="M41.5583 26.5147C45.7487 26.3269 48.9934 22.7777 48.8055 18.5873C48.6177 14.3969 45.0685 11.1522 40.8781 11.3401C36.6878 11.5279 33.4431 15.0771 33.6309 19.2675C33.8187 23.4579 37.368 26.7025 41.5583 26.5147Z" fill="#0D359B"/>
<path d="M63.5098 43.6263L52.7658 32.0795C50.5429 29.7331 47.4555 28.3747 44.2447 28.3747H38.2552C35.0443 28.3747 31.8952 29.7331 29.7341 32.0795L18.9283 43.6263C17.6316 45.0465 17.6934 47.2694 19.1136 48.566C20.1633 49.4923 21.5834 49.7392 22.8184 49.2453C22.2009 50.2332 22.0157 51.4064 22.3862 52.5179L27.079 67.2137C27.7582 69.3131 29.9811 70.4863 32.0805 69.8071C34.1799 69.1279 35.3531 66.905 34.6739 64.8056L31.6482 55.2965H50.7899L47.7643 64.8056C47.0851 66.905 48.2583 69.1279 50.3577 69.8071C50.7899 69.9306 51.1604 69.9923 51.5926 69.9923C53.2598 69.9923 54.8652 68.9426 55.3592 67.2137L60.052 52.5179C60.4225 51.4064 60.2372 50.2332 59.6198 49.2453C60.052 49.4305 60.4842 49.4923 60.9164 49.4923C61.7809 49.4923 62.6454 49.1835 63.2628 48.566C64.7448 47.2694 64.8065 45.0465 63.5098 43.6263ZM26.1527 47.3311C25.6588 47.3311 25.1648 47.4546 24.7326 47.6398L33.8094 37.8838V47.3311H26.1527ZM48.6287 47.3311V37.8838L57.7056 47.5781C57.2734 47.3928 56.7794 47.2694 56.2854 47.2694H48.6287V47.3311Z" fill="#0D359B"/>
</svg>
