<svg width="81" height="97" viewBox="0 0 81 97" fill="none" xmlns="http://www.w3.org/2000/svg">
<path d="M40.5 0C18.1323 0 0 18.217 0 40.687C0 73.237 40.5 96.487 40.5 96.487C40.5 96.487 81 70.912 81 40.687C81 18.217 62.8677 0 40.5 0Z" fill="#4B7CB6"/>
<ellipse cx="40.8116" cy="41" rx="35.8345" ry="36" fill="white"/>
<path d="M44.4805 46.5391C44.4805 45.4323 44.0898 44.5859 43.3086 44C42.5273 43.401 41.1211 42.776 39.0898 42.125C37.0586 41.4609 35.4505 40.8099 34.2656 40.1719C31.0365 38.4271 29.4219 36.0768 29.4219 33.1211C29.4219 31.5846 29.8516 30.2174 30.7109 29.0195C31.5833 27.8086 32.8268 26.8646 34.4414 26.1875C36.069 25.5104 37.8919 25.1719 39.9102 25.1719C41.9414 25.1719 43.7513 25.543 45.3398 26.2852C46.9284 27.0143 48.1589 28.0495 49.0312 29.3906C49.9167 30.7318 50.3594 32.2552 50.3594 33.9609H44.5C44.5 32.6589 44.0898 31.6497 43.2695 30.9336C42.4492 30.2044 41.2969 29.8398 39.8125 29.8398C38.3802 29.8398 37.2669 30.1458 36.4727 30.7578C35.6784 31.3568 35.2812 32.151 35.2812 33.1406C35.2812 34.0651 35.7435 34.8398 36.668 35.4648C37.6055 36.0898 38.9792 36.6758 40.7891 37.2227C44.1224 38.2253 46.5508 39.4688 48.0742 40.9531C49.5977 42.4375 50.3594 44.2865 50.3594 46.5C50.3594 48.9609 49.4284 50.8945 47.5664 52.3008C45.7044 53.694 43.1979 54.3906 40.0469 54.3906C37.8594 54.3906 35.8672 53.9935 34.0703 53.1992C32.2734 52.3919 30.8997 51.2917 29.9492 49.8984C29.0117 48.5052 28.543 46.8906 28.543 45.0547H34.4219C34.4219 48.1927 36.2969 49.7617 40.0469 49.7617C41.4401 49.7617 42.5273 49.4818 43.3086 48.9219C44.0898 48.349 44.4805 47.5547 44.4805 46.5391Z" fill="#393D3F"/>
</svg>
