<svg width="31" height="37" viewBox="0 0 31 37" fill="none" xmlns="http://www.w3.org/2000/svg">
<path d="M15.6018 0.0911027C7.09762 0.0407877 0.165251 6.76437 0.117782 15.108C0.0490181 27.1945 15.398 35.9188 15.398 35.9188C15.398 35.9188 30.8501 26.5134 30.914 15.2902C30.9614 6.94657 24.106 0.141418 15.6018 0.0911027Z" fill="black"/>
<ellipse rx="13.9917" ry="13.4655" transform="matrix(0.999987 0.00512269 -0.00644381 0.999979 15.4661 15.2755)" fill="white"/>
<path d="M8.48935 5.78447C9.26037 6.31445 9.84699 7.65409 9.84699 7.65409C9.84699 7.65409 10.513 8.08429 10.7193 8.62983C10.9252 9.17537 10.7232 9.91356 10.7232 9.91356C10.7232 9.91356 11.3067 11.5147 11.025 11.9616C10.7433 12.4082 9.55587 12.6896 9.55587 12.6896C9.55587 12.6896 9.06284 13.5193 8.05047 13.6735C7.38768 13.7336 6.7224 14.146 6.71731 15.0108C6.71221 15.8756 7.64537 17.2894 7.64537 17.2894C7.64537 17.2894 8.61902 17.7334 8.75666 18.0546C8.89429 18.3758 8.93736 19.1218 8.93736 19.1218C8.93736 19.1218 9.85727 20.632 9.32928 21.4935C9.16072 21.7683 8.38499 21.9682 8.38499 21.9682L7.29028 23.4579" stroke="#111111" stroke-miterlimit="10" stroke-linecap="square"/>
<path d="M25.1984 8.19442C24.0108 8.70908 21.9363 9.13227 21.9363 9.13227C21.9363 9.13227 20.4133 10.671 19.4203 10.5372C18.4272 10.4034 17.4218 9.37322 17.4218 9.37322C17.4218 9.37322 17.5025 7.48476 17.1892 7.38679C16.876 7.28883 16.0363 7.79646 15.5152 7.40916C14.9946 7.02187 15.3025 5.94092 15.3025 5.94092C15.3025 5.94092 14.1658 5.60871 14.0283 5.25553C13.8909 4.90236 14.4495 4.12151 14.5568 3.8212" stroke="#111111" stroke-miterlimit="10" stroke-linecap="square"/>
<path d="M24.4631 15.8485C24.7385 16.4583 23.9266 18.0075 23.2628 18.3069C22.384 18.7035 21.7833 19.2042 21.5374 19.5552C21.291 19.9062 20.9617 21.3574 20.1576 21.641C19.354 21.9246 17.443 23.5569 16.4335 23.2949C15.4236 23.0333 15.4366 20.824 16.14 19.8355C16.5601 19.2454 16.0816 17.9462 16.0491 17.4974C16.0169 17.0491 14.5571 16.2082 14.5597 15.7601C14.5639 15.0557 16.2487 13.2083 16.2487 13.2083C16.2487 13.2083 17.6226 12.7999 18.0406 12.8985C18.4586 12.997 19.2464 13.4497 19.2464 13.4497C19.2464 13.4497 20.8148 13.5868 21.4059 13.8783L22.2039 14.5553C22.2039 14.5553 24.1876 15.2387 24.4631 15.8485Z" stroke="#111111" stroke-miterlimit="10" stroke-linecap="square"/>
<path d="M15.3893 26.3214C22.1683 26.3561 27.6964 21.3385 27.7365 15.1143C27.7766 8.88999 22.3136 3.81608 15.5345 3.78136C8.75542 3.74663 3.22737 8.76423 3.18726 14.9885C3.14716 21.2127 8.61017 26.2867 15.3893 26.3214Z" stroke="#111111" stroke-miterlimit="10" stroke-linecap="square"/>
</svg>
