<svg width="26" height="30" viewBox="0 0 26 30" fill="none" xmlns="http://www.w3.org/2000/svg">
<path d="M13 0C5.82024 0 0 5.66408 0 12.6505C0 22.771 13 30 13 30C13 30 26 22.0482 26 12.6505C26 5.66408 20.1798 0 13 0Z" fill="black"/>
<ellipse cx="13.1" cy="12.7478" rx="11.5024" ry="11.1932" fill="white"/>
<path d="M13.0035 3.42017C9.08622 3.41962 5.54587 5.64478 4.00404 9.07647L3.88201 9.11503L3.92932 9.25028C1.89927 14.0216 4.3124 19.4578 9.31925 21.3924C10.4886 21.8442 11.7387 22.0762 13.0006 22.0755C18.4064 22.0763 22.7893 17.9008 22.7901 12.7492C22.791 7.59772 18.4093 3.4209 13.0035 3.42017ZM20.6811 17.4507L20.1785 16.972V15.8571C20.1791 15.809 20.1679 15.7614 20.1459 15.7181L18.8734 13.2963V12.126C18.8734 12.0221 18.819 11.925 18.7283 11.8673L17.7494 11.2455C17.6727 11.1967 17.5779 11.1811 17.4884 11.2026L16.2897 11.488L14.2763 10.6647L13.9993 8.8153L14.767 8.08401H16.415L16.9697 8.87841C17.0197 8.94985 17.0987 8.99839 17.1876 9.01242L19.1452 9.32334C19.1977 9.33174 19.2514 9.32766 19.3018 9.31153L21.1048 8.73881C22.617 11.5043 22.4553 14.8304 20.6811 17.4507ZM19.3354 6.484L18.8049 6.82104L17.3259 6.53903L16.3664 6.23464C16.3077 6.21563 16.2444 6.21322 16.1843 6.2278L14.9713 6.51665L14.4394 6.34781L14.8336 5.59663H15.937C15.9876 5.59666 16.0375 5.58551 16.0829 5.56398L17.2118 5.02608C17.9892 5.41279 18.7044 5.90374 19.3354 6.484ZM9.42696 4.7363L10.21 5.23378C10.2485 5.25819 10.292 5.27451 10.3376 5.28166L11.9187 5.53289L11.7644 5.97284L10.9405 6.23495C10.8667 6.25835 10.8041 6.30607 10.764 6.36958L9.82697 7.85766L8.32189 8.71829L6.10326 9.02019C5.94245 9.04184 5.82287 9.17294 5.82267 9.3277V10.2605C5.82267 10.3429 5.85709 10.422 5.91826 10.4803L6.4752 11.011V11.5452L5.11792 10.6827L4.62558 9.27515C5.5623 7.2355 7.27917 5.61248 9.42696 4.7363ZM8.49807 14.9305L7.02334 14.6491L6.4752 13.6072V12.8766L7.69088 11.7181L8.14081 12.5759C8.19607 12.6813 8.30916 12.7479 8.43282 12.7478H10.532L11.4159 14.1517C11.4749 14.2452 11.581 14.3024 11.6955 14.3025H12.6025L12.3742 15.3929L11.1389 16.57C11.0776 16.6283 11.0431 16.7073 11.043 16.7898V17.5671L9.86841 18.4066C9.78627 18.4654 9.7379 18.5575 9.7379 18.6554V19.7784L9.33202 19.6503L8.75909 18.2848V15.2352C8.75913 15.0875 8.64999 14.9601 8.49807 14.9305ZM7.51731 19.7102C4.44104 17.5109 3.14008 13.7108 4.26342 10.2057L4.53455 10.9806C4.55739 11.0461 4.6025 11.1026 4.66278 11.141L6.28923 12.1742L5.91826 12.528C5.85709 12.5863 5.82267 12.6654 5.82267 12.7478V13.6806C5.82262 13.7288 5.83433 13.7764 5.85692 13.8196L6.50946 15.0633C6.55465 15.1492 6.63895 15.2104 6.73785 15.229L8.10818 15.4899V18.3445C8.10814 18.3839 8.11601 18.4231 8.13135 18.4598L8.78389 20.0144C8.81961 20.0993 8.89278 20.165 8.98389 20.1938L9.9627 20.5047C9.99541 20.5153 10.0297 20.5208 10.0642 20.5209C10.2443 20.5209 10.3904 20.3817 10.3904 20.21V18.8108L11.565 17.9713C11.6471 17.9126 11.6955 17.8205 11.6955 17.7226V16.9186L12.905 15.766C12.9505 15.7226 12.9815 15.6673 12.9941 15.6071L13.3203 14.0525C13.3557 13.8841 13.2411 13.7203 13.0643 13.6866C13.0433 13.6826 13.022 13.6806 13.0006 13.6806H11.8802L10.9963 12.2768C10.9373 12.1833 10.8312 12.126 10.7167 12.126H8.63445L8.07392 11.0543C8.02698 10.9648 7.93775 10.9023 7.83412 10.8864C7.73053 10.8693 7.62477 10.9019 7.55124 10.9734L7.12774 11.3754V10.8823C7.12774 10.7998 7.09332 10.7208 7.03215 10.6625L6.4752 10.1317V9.59727L8.47915 9.32459C8.52218 9.31864 8.56357 9.30457 8.60085 9.28324L10.2322 8.35047C10.278 8.32427 10.3163 8.28774 10.3438 8.24413L11.2606 6.78808L12.1249 6.51323C12.2225 6.48272 12.2991 6.40977 12.3311 6.31672L12.6574 5.38395C12.7139 5.22091 12.621 5.04505 12.4499 4.99118C12.4341 4.98621 12.418 4.9824 12.4016 4.97975L10.5131 4.67971L10.1813 4.46891C12.2345 3.83206 14.4582 3.91088 16.4561 4.69122L15.86 4.97478H14.6319C14.5077 4.97412 14.3938 5.04081 14.3383 5.14672L13.6858 6.39041C13.6054 6.54408 13.6709 6.73079 13.8322 6.8074C13.8459 6.81393 13.8601 6.81952 13.8747 6.82415L14.8535 7.13507C14.9122 7.15408 14.9754 7.15649 15.0355 7.14191L16.2486 6.85306L17.1374 7.13507C17.1501 7.13942 17.1632 7.14277 17.1765 7.14502L18.8079 7.45594C18.8927 7.47242 18.9809 7.45587 19.0529 7.40993L19.7955 6.93795C20.1609 7.32586 20.4894 7.74405 20.7769 8.18754L19.1717 8.69746L17.4336 8.42136L16.8594 7.60052C16.7992 7.51451 16.698 7.46267 16.5896 7.46216H14.6319C14.5454 7.46216 14.4624 7.49496 14.4013 7.55326L13.4225 8.48603C13.3498 8.55525 13.3156 8.65307 13.3301 8.75L13.6564 10.9265C13.6728 11.0341 13.7471 11.1257 13.8522 11.168L16.136 12.1008C16.2015 12.1278 16.2745 12.1334 16.3435 12.1167L17.5087 11.839L18.2209 12.2923V13.3697C18.2203 13.4178 18.2315 13.4654 18.2535 13.5087L19.526 15.9305V17.1008C19.526 17.1832 19.5604 17.2623 19.6216 17.3206L20.3041 17.9713C17.277 21.8164 11.5522 22.595 7.51731 19.7102Z" fill="black"/>
</svg>
